<?xml version="1.0" encoding="UTF-8" standalone="no"?>
<svg
   xmlns:dc="http://purl.org/dc/elements/1.1/"
   xmlns:cc="http://creativecommons.org/ns#"
   xmlns:rdf="http://www.w3.org/1999/02/22-rdf-syntax-ns#"
   xmlns:svg="http://www.w3.org/2000/svg"
   xmlns="http://www.w3.org/2000/svg"
   xmlns:sodipodi="http://sodipodi.sourceforge.net/DTD/sodipodi-0.dtd"
   xmlns:inkscape="http://www.inkscape.org/namespaces/inkscape"
   id="svg4171"
   version="1.1"
   xml:space="preserve"
   width="154.31395"
   height="142.09409"
   viewBox="0 0 154.31395 142.09409"
   inkscape:version="0.91 r13725"
   sodipodi:docname="elephant.svg"><sodipodi:namedview
     pagecolor="#ffffff"
     bordercolor="#666666"
     borderopacity="1"
     objecttolerance="10"
     gridtolerance="10"
     guidetolerance="10"
     inkscape:pageopacity="0"
     inkscape:pageshadow="2"
     inkscape:window-width="1410"
     inkscape:window-height="822"
     id="namedview5341"
     showgrid="false"
     fit-margin-top="0"
     fit-margin-left="0"
     fit-margin-right="0"
     fit-margin-bottom="0"
     inkscape:zoom="2.0973126"
     inkscape:cx="132.15083"
     inkscape:cy="58.95854"
     inkscape:window-x="0"
     inkscape:window-y="0"
     inkscape:window-maximized="0"
     inkscape:current-layer="svg4171" /><metadata
     id="metadata4177"><rdf:RDF><cc:Work
         rdf:about=""><dc:format>image/svg+xml</dc:format><dc:type
           rdf:resource="http://purl.org/dc/dcmitype/StillImage" /><dc:title></dc:title></cc:Work></rdf:RDF></metadata><defs
     id="defs4175" /><g
     transform="matrix(1.25,0,0,-1.25,-1055.8574,830.40378)"
     id="g6915"><path
       d="m 872.10925,552.29984 c 6.478,-1.275 10.74,-0.404 11.778,0.241 2.904,1.802 2.585,30.572 6.831,36.496 0.031,0.043 -4.183,-36.174 -2.408,-37.017 2.429,-1.154 11.627,-2.433 11.83,0.069 3.858,47.361 39.245,49.281 41.935,-0.591 0.023,-0.427 11.137,-1.053 11.137,1.599 0,11.151 -2.15,15.422 -1.819,26.887 0.151,5.236 4.688,-27.286 6.328,-27.348 3.995,-0.153 7.049,-0.405 9.726,0.863 1.276,17.207 1.37,50.173 -4.97,60.631 1.392,1.515 1.398,4.236 -0.923,5.54 -0.778,0.437 -1.441,1.636 -1.158,2.43 0.339,0.95 1.785,1.421 2.626,0.666 1.07,-0.963 -1.368,-2.318 0.756,-1.545 0.382,0.138 2.213,2.621 -2.02,2.621 -2.517,0 -3.439,-2.363 -1.531,-4.019 1.85,-1.604 3.405,-2.721 1.485,-4.547 -14.514,20.591 -54.492,19.605 -72.268,7.903 -27.52,-18.114 -17.168,-49.433 -17.335,-70.879"
       style="fill:#bdbcbc;fill-opacity:1;fill-rule:evenodd;stroke:none"
       id="path6767"
       inkscape:connector-curvature="0" /><path
       d="m 884.42625,640.18284 c 1.51,15.729 -26.339,29.574 -34.578,22.015 -9.044,-8.298 0.175,-23.111 -0.026,-35.575 -0.182,-11.264 17.044,-19.597 20.529,-8.587 2.618,8.269 9.747,14.041 14.075,22.147"
       style="fill:#918f90;fill-opacity:1;fill-rule:evenodd;stroke:none"
       id="path6769"
       inkscape:connector-curvature="0" /><path
       d="m 904.81025,629.03084 c 8.007,13.621 38.682,8.491 40.917,-2.464 2.454,-12.028 -13.703,-18.613 -20.854,-28.823 -6.462,-9.226 -25.301,-5.866 -21.662,5.095 2.732,8.23 0.347,17.088 1.599,26.192"
       style="fill:#918f90;fill-opacity:1;fill-rule:evenodd;stroke:none"
       id="path6771"
       inkscape:connector-curvature="0" /><path
       d="m 874.82325,639.39084 c 0.757,7.883 -13.199,14.82 -17.328,11.032 -4.533,-4.158 0.088,-11.583 -0.014,-17.827 -0.09,-5.645 8.542,-9.821 10.288,-4.303 1.313,4.143 4.884,7.036 7.054,11.098"
       style="fill:#f39c92;fill-opacity:1;fill-rule:evenodd;stroke:none"
       id="path6773"
       inkscape:connector-curvature="0" /><path
       d="m 916.70725,624.75884 c 4.548,6.127 19.014,2.077 19.521,-3.3 0.556,-5.902 -7.544,-8.229 -11.506,-12.762 -3.58,-4.095 -12.453,-1.508 -10.138,3.566 1.738,3.812 1.05,8.189 2.123,12.496"
       style="fill:#f39c92;fill-opacity:1;fill-rule:evenodd;stroke:none"
       id="path6775"
       inkscape:connector-curvature="0" /><path
       d="m 887.81025,647.25784 c -12.941,-0.682 -21.839,-13.396 -21.839,-26.431 0,-18.636 14.961,-29.783 -6.312,-37.716 -11.008,-4.104 -11.725,15.975 -4.812,17.482 1.255,0.274 -2.161,2.469 -3.64,3.428 -8.025,-6.205 -8.792,-18.921 1.127,-25.178 9.346,-5.896 30.98,12.62 31.427,12.691 56.521,8.993 39.775,57.608 4.049,55.724"
       style="fill:#d3d2d2;fill-opacity:1;fill-rule:evenodd;stroke:none"
       id="path6777"
       inkscape:connector-curvature="0" /><path
       d="m 872.98025,552.16084 c -1.529,0.185 2.726,4.197 2.869,0.095 0.028,-0.797 -2.133,-0.183 -2.869,-0.095 l 0,0 z m 15.995,-0.487 0,0 c -1.511,0.304 3.045,3.971 2.867,-0.13 -0.035,-0.797 -2.14,-0.016 -2.867,0.13 l 0,0 z m 3.94,-0.787 0,0 c -0.806,-0.038 -0.38,1.19 0.475,1.784 0.867,0.603 2.172,0.561 2.384,-1.546 0.091,-0.898 -2.124,-0.206 -2.859,-0.238 l 0,0 z m -15.945,0.797 0,0 c -0.801,-0.099 -0.473,1.158 0.334,1.818 0.817,0.668 2.122,0.727 2.498,-1.355 0.16,-0.89 -2.102,-0.372 -2.832,-0.463 l 0,0 z m 4.165,0.122 0,0 c -0.716,-0.169 -0.596,0.865 -0.052,1.554 0.55,0.697 1.613,0.981 2.297,-0.663 0.293,-0.701 -1.641,-0.749 -2.245,-0.891 l 0,0 z m 15.943,-1.124 0,0 c -0.728,-0.112 -0.528,0.91 0.068,1.553 0.604,0.652 1.685,0.853 2.239,-0.84 0.238,-0.723 -1.694,-0.619 -2.307,-0.713 l 0,0"
       style="fill:#656263;fill-opacity:1;fill-rule:evenodd;stroke:none"
       id="path6779"
       inkscape:connector-curvature="0" /><path
       d="m 942.51125,551.45784 c -1.538,0.096 2.481,4.346 2.859,0.259 0.073,-0.795 -2.119,-0.306 -2.859,-0.259 l 0,0 z m 15.178,1.226 0,0 c -1.449,0.091 2.339,4.097 2.694,0.243 0.07,-0.748 -1.997,-0.288 -2.694,-0.244 l 0,10e-4 z m 3.781,-0.235 0,0 c -0.748,-0.136 -0.507,1.065 0.216,1.729 0.733,0.674 1.958,0.798 2.426,-1.14 0.199,-0.828 -1.959,-0.463 -2.642,-0.589 l 0,0 z m -14.949,-1.239 0,0 c -0.793,-0.145 -0.537,1.128 0.23,1.833 0.777,0.714 2.076,0.847 2.572,-1.209 0.211,-0.879 -2.077,-0.492 -2.802,-0.624 l 0,0 z m 4.153,0.359 0,0 c -0.706,-0.209 -0.646,0.831 -0.143,1.549 0.511,0.728 1.554,1.071 2.332,-0.53 0.334,-0.684 -1.595,-0.843 -2.189,-1.019 l 0,0 z m 14.711,1.22 0,0 c -0.666,-0.198 -0.609,0.783 -0.134,1.46 0.48,0.686 1.465,1.011 2.2,-0.499 0.313,-0.645 -1.505,-0.794 -2.066,-0.961 l 0,0"
       style="fill:#656263;fill-opacity:1;fill-rule:evenodd;stroke:none"
       id="path6781"
       inkscape:connector-curvature="0" /><path
       d="m 909.89825,606.47884 c -2.124,-2.176 -4.784,-3.177 -7.196,-1.636 -0.045,0.063 -0.112,0.104 -0.182,0.121 -0.288,0.2 -0.571,0.437 -0.85,0.713 -0.115,0.129 -0.311,0.14 -0.439,0.026 -0.129,-0.114 -0.141,-0.311 -0.026,-0.44 0.244,-0.242 0.492,-0.458 0.743,-0.65 -0.314,-0.316 -0.508,-0.588 -0.9,-0.898 -0.153,-0.079 -0.213,-0.267 -0.134,-0.419 0.078,-0.154 0.265,-0.214 0.419,-0.136 0.599,0.459 0.708,0.709 1.128,1.102 0.424,-0.262 0.856,-0.456 1.292,-0.585 -0.366,-0.877 -0.191,-0.453 -0.631,-1.533 -0.069,-0.159 0.004,-0.342 0.162,-0.41 0.158,-0.068 0.342,0.004 0.41,0.163 0.462,1.13 0.256,0.63 0.675,1.638 0.403,-0.066 0.807,-0.079 1.21,-0.046 -0.023,-0.878 0.006,-0.446 -0.118,-1.502 -0.055,-0.162 0.032,-0.339 0.194,-0.395 0.163,-0.056 0.341,0.031 0.396,0.194 0.164,1.263 0.125,0.71 0.153,1.793 0.362,0.074 0.722,0.184 1.079,0.329 0.385,-1.136 0.21,-0.627 0.58,-1.698 0.088,-0.148 0.279,-0.197 0.428,-0.11 0.146,0.089 0.195,0.281 0.107,0.428 -0.313,0.973 -0.146,0.463 -0.546,1.641 0.477,0.242 0.942,0.545 1.395,0.898 0.684,-0.924 0.354,-0.454 1.042,-1.495 0.078,-0.153 0.266,-0.214 0.42,-0.135 0.153,0.079 0.212,0.267 0.134,0.42 -0.74,1.127 -0.388,0.627 -1.117,1.606 0.224,0.198 0.443,0.407 0.66,0.628 0.107,0.135 0.085,0.329 -0.05,0.437 -0.134,0.108 -0.331,0.086 -0.438,-0.049"
       style="fill:#4b443c;fill-opacity:1;fill-rule:evenodd;stroke:none"
       id="path6783"
       inkscape:connector-curvature="0" /><path
       d="m 869.71725,620.59384 c 0.414,-2.909 1.918,-5.207 4.676,-5.381 0.072,0.022 0.147,0.017 0.212,-0.01 0.338,-0.008 0.694,0.015 1.068,0.072 0.163,0.035 0.324,-0.068 0.359,-0.231 0.035,-0.163 -0.069,-0.323 -0.231,-0.358 -0.33,-0.05 -0.646,-0.077 -0.951,-0.083 0.065,-0.424 0.061,-0.747 0.19,-1.213 0.074,-0.149 0.013,-0.33 -0.134,-0.404 -0.15,-0.075 -0.331,-0.015 -0.405,0.134 -0.205,0.699 -0.148,0.957 -0.25,1.502 -0.482,0.038 -0.928,0.133 -1.342,0.281 -0.215,-0.892 -0.11,-0.461 -0.382,-1.555 -0.037,-0.163 -0.198,-0.264 -0.36,-0.226 -0.164,0.036 -0.264,0.198 -0.227,0.36 0.285,1.144 0.16,0.637 0.408,1.661 -0.351,0.18 -0.674,0.4 -0.969,0.655 -0.484,-0.696 -0.26,-0.344 -0.765,-1.236 -0.05,-0.159 -0.219,-0.248 -0.377,-0.198 -0.159,0.049 -0.247,0.218 -0.197,0.376 0.591,1.078 0.307,0.627 0.903,1.485 -0.24,0.264 -0.458,0.556 -0.654,0.872 -0.948,-0.666 -0.521,-0.368 -1.42,-0.992 -0.155,-0.066 -0.33,0.006 -0.396,0.159 -0.065,0.153 0.007,0.328 0.16,0.394 0.799,0.579 0.377,0.278 1.361,0.968 -0.232,0.46 -0.423,0.962 -0.575,1.494 -1.06,-0.329 -0.535,-0.151 -1.664,-0.569 -0.149,-0.075 -0.33,-0.015 -0.405,0.134 -0.074,0.149 -0.014,0.329 0.135,0.403 1.221,0.458 0.66,0.267 1.787,0.615 -0.061,0.282 -0.114,0.571 -0.156,0.865 -0.006,0.167 0.122,0.308 0.289,0.314 0.166,0.007 0.306,-0.123 0.312,-0.288"
       style="fill:#4b443c;fill-opacity:1;fill-rule:evenodd;stroke:none"
       id="path6785"
       inkscape:connector-curvature="0" /><path
       d="m 892.27825,647.07384 c -19.327,2.736 -6.728,-55.541 -32.196,-63.501 -11.52,-3.6 -11.824,15.409 -4.648,16.572 1.302,0.211 -2.715,3.359 -4.18,4.425 -8.575,-5.921 -9.22,-19.013 0.84,-25.713 9.449,-6.292 32.624,10.939 32.942,11.277 32.239,34.307 39.043,52.441 7.242,56.94"
       style="fill:#989a9a;fill-opacity:1;fill-rule:evenodd;stroke:none"
       id="path6787"
       inkscape:connector-curvature="0" /><path
       d="m 905.74225,644.73284 c -0.628,0.38 -1.537,0.026 -2.031,-0.79 -0.495,-0.815 -0.386,-1.783 0.242,-2.164 0.627,-0.38 1.536,-0.027 2.03,0.788 0.494,0.816 0.386,1.785 -0.241,2.166"
       style="fill:#68bc47;fill-opacity:1;fill-rule:evenodd;stroke:none"
       id="path6789"
       inkscape:connector-curvature="0" /><path
       d="m 904.47725,645.11984 c -0.495,-0.289 -0.922,-0.718 -1.077,-1.091 -0.671,-1.613 0.228,-2.174 -4.934,-1.009 -0.849,0.192 -3.125,1.054 -2.145,3.446 0.004,0.022 0.986,0.202 1.186,0.581 0.214,0.408 10e-4,1.482 0.363,1.849 0.25,0.254 1.265,0.155 1.502,0.4 0.215,0.223 -0.197,0.83 0.032,1.008 1.849,1.449 4.033,1.191 5.073,-5.184"
       style="fill:#68bc47;fill-opacity:1;fill-rule:evenodd;stroke:none"
       id="path6791"
       inkscape:connector-curvature="0" /><path
       d="m 906.66925,643.63684 c -0.039,-0.573 -0.232,-1.145 -0.497,-1.451 -1.145,-1.319 -2.047,-0.763 1.292,-4.867 0.55,-0.675 2.334,-2.33 4.041,-0.387 0.018,0.013 -0.257,0.973 -0.007,1.32 0.269,0.375 1.327,0.662 1.494,1.148 0.115,0.337 -0.425,1.202 -0.311,1.522 0.104,0.294 0.832,0.195 0.89,0.479 0.473,2.3 -0.73,4.142 -6.902,2.236"
       style="fill:#68bc47;fill-opacity:1;fill-rule:evenodd;stroke:none"
       id="path6793"
       inkscape:connector-curvature="0" /><path
       d="m 876.86925,627.15884 c -1.176,1.462 -3.082,1.339 -4.405,0.159 l -0.512,-0.566 c -0.076,-0.105 -0.054,-0.252 0.051,-0.33 0.106,-0.075 0.252,-0.052 0.33,0.054 l 0.444,0.49 c 1.092,0.976 2.716,1.154 3.703,-0.072 0.074,-0.108 0.221,-0.134 0.328,-0.062 0.107,0.075 0.134,0.221 0.061,0.327"
       style="fill:#4b443c;fill-opacity:1;fill-rule:evenodd;stroke:none"
       id="path6795"
       inkscape:connector-curvature="0" /><path
       d="m 910.43725,616.54284 c 1.839,0.367 3.223,-0.951 3.48,-2.703 l 0.031,-0.764 c -0.009,-0.129 -0.121,-0.227 -0.251,-0.218 -0.129,0.008 -0.228,0.121 -0.219,0.251 l -0.026,0.662 c -0.213,1.448 -1.344,2.628 -2.889,2.319 -0.125,-0.035 -0.254,0.038 -0.289,0.163 -0.035,0.126 0.038,0.255 0.163,0.29"
       style="fill:#4b443c;fill-opacity:1;fill-rule:evenodd;stroke:none"
       id="path6797"
       inkscape:connector-curvature="0" /></g></svg>