<?xml version="1.0" encoding="UTF-8" standalone="no"?>
<svg
   xmlns:dc="http://purl.org/dc/elements/1.1/"
   xmlns:cc="http://creativecommons.org/ns#"
   xmlns:rdf="http://www.w3.org/1999/02/22-rdf-syntax-ns#"
   xmlns:svg="http://www.w3.org/2000/svg"
   xmlns="http://www.w3.org/2000/svg"
   xmlns:sodipodi="http://sodipodi.sourceforge.net/DTD/sodipodi-0.dtd"
   xmlns:inkscape="http://www.inkscape.org/namespaces/inkscape"
   id="svg4171"
   version="1.1"
   xml:space="preserve"
   width="154.31395"
   height="142.09409"
   viewBox="0 0 154.31395 142.09409"
   inkscape:version="0.91 r13725"
   sodipodi:docname="elephant_gray.svg"><sodipodi:namedview
     pagecolor="#ffffff"
     bordercolor="#666666"
     borderopacity="1"
     objecttolerance="10"
     gridtolerance="10"
     guidetolerance="10"
     inkscape:pageopacity="0"
     inkscape:pageshadow="2"
     inkscape:window-width="1410"
     inkscape:window-height="822"
     id="namedview5341"
     showgrid="false"
     fit-margin-top="0"
     fit-margin-left="0"
     fit-margin-right="0"
     fit-margin-bottom="0"
     inkscape:zoom="2.0973126"
     inkscape:cx="132.15083"
     inkscape:cy="58.95854"
     inkscape:window-x="0"
     inkscape:window-y="0"
     inkscape:window-maximized="0"
     inkscape:current-layer="svg4171" /><metadata
     id="metadata4177"><rdf:RDF><cc:Work
         rdf:about=""><dc:format>image/svg+xml</dc:format><dc:type
           rdf:resource="http://purl.org/dc/dcmitype/StillImage" /><dc:title></dc:title></cc:Work></rdf:RDF></metadata><defs
     id="defs4175" /><path
     style="fill:#999999;fill-opacity:1;fill-rule:evenodd;stroke:none"
     d="M 14.427734 0.001953125 C 11.176676 0.053222656 8.3841407 0.88460938 6.453125 2.65625 C -4.851875 13.02875 6.6711719 31.545 6.4199219 47.125 C 6.239494 58.291702 19.739705 67.140907 27.509766 63.464844 C 29.42138 73.577274 33.657725 81.659744 32.904297 88.314453 C 32.897334 88.363193 32.891629 88.412179 32.884766 88.460938 C 32.832969 88.876229 32.763125 89.28708 32.669922 89.691406 C 29.47412 95.028759 25.190133 99.079696 19.246094 100.9375 C 4.8460943 105.4375 4.4655474 81.676406 13.435547 80.222656 C 15.063047 79.958906 10.042187 76.023906 8.2109375 74.691406 C -2.5078125 82.092656 -3.3152344 98.457031 9.2597656 106.83203 C 14.716525 110.46564 23.823984 107.80769 32.095703 103.87109 C 32.356052 116.66688 34.362604 129.33102 34.279297 140.0293 C 34.797317 140.13125 35.270608 140.19266 35.765625 140.27344 C 36.170094 140.34532 36.657307 140.43168 37.183594 140.50586 C 37.445382 140.54276 37.695504 140.57356 37.929688 140.58008 C 38.688074 140.66559 39.424728 140.73762 40.115234 140.77734 C 40.186402 140.79487 40.258638 140.8108 40.355469 140.79883 C 40.559629 140.77338 40.880176 140.79193 41.220703 140.81445 C 41.276603 140.81593 41.33525 140.81912 41.390625 140.82031 C 42.071759 140.86882 42.845868 140.92487 43.357422 140.80664 C 44.092272 140.77686 44.766996 140.72729 45.373047 140.6543 C 45.432627 140.65611 45.489174 140.66379 45.5625 140.64648 C 45.621317 140.63266 45.737558 140.62027 45.814453 140.60742 C 45.898451 140.5956 45.973551 140.58279 46.054688 140.57031 C 46.691157 140.48053 47.560791 140.37686 48.054688 140.11719 C 48.456017 139.98737 48.796919 139.85592 49.001953 139.72852 C 52.631953 137.47602 52.233515 101.51242 57.541016 94.107422 C 57.579766 94.053672 52.3125 139.32516 54.53125 140.37891 C 54.674081 140.44676 54.851069 140.51594 55.029297 140.58398 C 55.08125 140.6893 55.175736 140.77321 55.361328 140.81055 C 55.936001 140.92596 57.196211 141.3575 58.058594 141.4082 C 58.658462 141.5296 59.307816 141.62899 59.958984 141.72461 C 60.042223 141.77281 60.147022 141.80153 60.287109 141.79492 C 60.895711 141.76842 62.301641 142.12772 63.158203 142.05469 C 64.346441 142.11508 65.481753 142.10134 66.447266 141.97852 C 67.245458 141.93107 68.182597 141.84615 68.367188 141.45312 C 68.367456 141.45255 68.366922 141.45175 68.367188 141.45117 C 68.916259 141.17171 69.277185 140.80046 69.318359 140.29297 C 74.140859 81.091719 118.37383 78.69125 121.73633 141.03125 C 121.75927 141.45649 130.56407 142.03302 134.15039 140.57617 C 134.72064 140.42644 135.20704 140.22579 135.25781 139.91211 C 135.51114 139.65698 135.6582 139.36697 135.6582 139.0332 C 135.6582 125.09445 132.97102 119.75508 133.38477 105.42383 C 133.56137 99.30011 138.53654 134.48798 140.85547 139.10742 C 140.83055 139.3165 140.92084 139.46377 141.14453 139.51758 C 141.19584 139.5619 141.24739 139.60758 141.29492 139.60938 C 141.53081 139.61841 141.73217 139.62539 141.96289 139.63477 C 142.67233 139.72813 143.56342 139.83759 144.125 139.7168 C 144.61619 139.73404 145.11603 139.74772 145.58398 139.75586 C 145.67695 139.83155 145.7991 139.87477 145.98047 139.8418 C 146.59547 139.72834 148.15458 139.92739 148.89258 139.66406 C 149.47176 139.61317 150.03689 139.53999 150.58398 139.43555 C 150.66545 139.45266 150.7601 139.45213 150.875 139.41797 C 151.56385 139.21291 153.76186 139.02847 153.46875 138.25781 C 155.04554 116.67907 155.13166 75.762525 147.23828 62.742188 C 148.97828 60.848438 148.98719 57.446406 146.08594 55.816406 C 145.11344 55.270156 144.28492 53.771797 144.63867 52.779297 C 145.06242 51.591797 146.86867 51.003516 147.91992 51.947266 C 149.25742 53.151016 146.21023 54.843203 148.86523 53.876953 C 149.34273 53.704453 151.63109 50.601563 146.33984 50.601562 C 143.19359 50.601562 142.04078 53.555 144.42578 55.625 C 146.73828 57.63 148.6832 59.026094 146.2832 61.308594 C 141.43156 54.425578 134.29205 49.488194 126.02734 46.203125 C 122.81635 36.68896 102.29885 31.099326 87.691406 35.289062 C 86.724737 34.105678 85.670302 32.973748 84.53125 31.902344 C 84.91632 31.684042 85.2817 31.448551 85.382812 31.154297 C 85.526562 30.733047 84.851641 29.651953 84.994141 29.251953 C 85.124141 28.884453 86.034922 29.007344 86.107422 28.652344 C 86.698672 25.777344 85.193516 23.474922 77.478516 25.857422 C 77.460735 26.118661 77.41168 26.374306 77.347656 26.619141 C 77.215842 26.544241 77.080309 26.473942 76.947266 26.400391 C 77.1297 25.609916 76.906147 24.844267 76.320312 24.488281 C 75.674702 24.097625 74.795008 24.334701 74.158203 24.996094 C 74.02585 24.936074 73.891184 24.879043 73.757812 24.820312 C 74.015346 24.520053 74.354493 24.227976 74.738281 24.003906 C 73.438281 16.035156 70.709688 15.712188 68.398438 17.523438 C 68.112186 17.745938 68.626172 18.504453 68.357422 18.783203 C 68.061172 19.089453 66.792969 18.965703 66.480469 19.283203 C 66.027919 19.741953 66.294844 21.085703 66.027344 21.595703 C 65.901549 21.834083 65.529952 22.008004 65.189453 22.126953 C 61.645104 21.419219 57.872408 21.122877 53.90625 21.332031 C 52.030223 21.430899 50.224755 21.740093 48.494141 22.220703 C 43.711591 9.7195173 26.11727 -0.18239205 14.427734 0.001953125 z "
     id="path6767" /></svg>