<?xml version="1.0" encoding="UTF-8" standalone="no"?>
<svg
   xmlns:dc="http://purl.org/dc/elements/1.1/"
   xmlns:cc="http://creativecommons.org/ns#"
   xmlns:rdf="http://www.w3.org/1999/02/22-rdf-syntax-ns#"
   xmlns:svg="http://www.w3.org/2000/svg"
   xmlns="http://www.w3.org/2000/svg"
   xmlns:sodipodi="http://sodipodi.sourceforge.net/DTD/sodipodi-0.dtd"
   xmlns:inkscape="http://www.inkscape.org/namespaces/inkscape"
   id="svg4171"
   version="1.1"
   xml:space="preserve"
   width="117.93563"
   height="166.10558"
   viewBox="0 0 117.93563 166.10558"
   inkscape:version="0.91 r13725"
   sodipodi:docname="giraffe_gray.svg"><sodipodi:namedview
     pagecolor="#ffffff"
     bordercolor="#666666"
     borderopacity="1"
     objecttolerance="10"
     gridtolerance="10"
     guidetolerance="10"
     inkscape:pageopacity="0"
     inkscape:pageshadow="2"
     inkscape:window-width="1298"
     inkscape:window-height="831"
     id="namedview6584"
     showgrid="false"
     fit-margin-top="0"
     fit-margin-left="0"
     fit-margin-right="0"
     fit-margin-bottom="0"
     inkscape:zoom="2.016321"
     inkscape:cx="70.418173"
     inkscape:cy="97.670572"
     inkscape:window-x="0"
     inkscape:window-y="0"
     inkscape:window-maximized="0"
     inkscape:current-layer="svg4171" /><metadata
     id="metadata4177"><rdf:RDF><cc:Work
         rdf:about=""><dc:format>image/svg+xml</dc:format><dc:type
           rdf:resource="http://purl.org/dc/dcmitype/StillImage" /><dc:title></dc:title></cc:Work></rdf:RDF></metadata><defs
     id="defs4175" /><path
     style="fill:#999999;fill-opacity:1;fill-rule:evenodd;stroke:none"
     d="M 32.191406 0.015625 C 29.786989 -0.27334808 27.900469 3.7910156 30.564453 3.7910156 C 31.343454 3.7910156 30.392283 6.943878 29.945312 9.0136719 C 28.264824 9.0375483 26.522218 9.3235821 24.736328 9.9082031 C 25.029781 9.0716811 25.080792 8.1105717 24.855469 7.5195312 C 20.114794 -4.9390267 19.775084 8.2652832 22.017578 11.025391 C 19.376647 12.325677 16.668321 14.294269 13.955078 17.076172 C 9.9750782 21.157422 4.2674219 28.256953 1.4199219 36.533203 C 0.73728413 38.517813 0.31021395 40.418621 0.14453125 42.152344 C 0.14453125 42.152344 0.14257812 42.152344 0.14257812 42.152344 C -0.49492188 46.486094 0.7526563 52.103516 8.8164062 52.322266 C 8.8756137 52.323841 8.9287471 52.291665 8.9726562 52.230469 C 14.444962 52.719849 21.627542 51.289346 28.060547 49.273438 C 30.823553 69.009247 39.233288 92.424244 35.802734 132.33594 C 34.758795 143.06619 34.16676 154.15046 33.873047 162.18555 C 33.801976 162.18261 33.682259 162.1671 33.681641 162.18164 C 33.672136 162.43636 33.711728 163.79877 33.787109 164.45703 C 33.783221 164.57879 33.775209 164.74151 33.771484 164.86133 C 37.501542 165.59509 38.232669 165.59274 38.533203 165.49414 C 38.73245 165.4887 38.910422 165.4362 39.068359 165.34961 C 39.298516 165.34366 39.495331 165.11053 39.669922 164.72461 C 40.1923 163.87628 40.29818 162.63477 40.267578 162.63477 C 40.261065 162.6347 40.199533 162.62909 40.191406 162.62891 C 41.570097 154.28413 40.81928 129.24086 46.210938 129.92969 C 52.044117 130.67513 46.969668 155.4358 46.466797 162.75977 C 46.466575 162.76045 46.459016 162.75902 46.458984 162.75977 C 46.45823 162.77661 46.45618 162.87814 46.455078 162.9043 C 46.440578 163.13487 46.441644 163.31006 46.4375 163.50195 C 46.411652 164.2893 46.385635 165.38707 46.478516 165.41211 C 47.768516 165.75211 49.797528 165.88484 51.111328 166.08984 C 51.634303 166.17121 51.985189 165.90588 52.236328 165.52344 C 52.438078 165.31998 52.575601 165.04743 52.615234 164.67773 C 52.618845 164.64397 52.623323 164.61185 52.626953 164.57812 C 52.779901 163.94399 52.793695 163.38978 52.777344 163.29492 C 59.780282 103.19032 97.151944 107.18017 98.1875 162.04688 C 98.185262 162.43601 98.070617 164.77622 98.203125 164.80469 C 98.611274 164.89316 99.136666 164.9641 99.697266 165.02539 C 100.42876 165.13699 101.29693 165.2151 102.13281 165.19141 C 102.66789 165.20705 103.16888 165.21112 103.56641 165.19336 C 105.21761 165.11956 104.65808 162.20188 104.60938 162.20312 C 104.60938 162.20312 104.60742 162.20312 104.60742 162.20312 C 104.42408 154.32436 102.11705 149.00789 102.99023 139.82422 C 104.00523 129.14797 109.66766 131.65508 110.53516 142.51758 C 111.01011 148.46457 111.66703 157.28652 112.32422 161.66797 C 112.32407 161.66867 112.31636 161.66723 112.31641 161.66797 C 112.32941 162.00172 112.58435 164.26211 112.68555 164.28711 C 112.79023 164.31249 112.9201 164.33336 113.03516 164.35742 C 113.039 164.35809 113.04303 164.36314 113.04688 164.36328 C 113.05822 164.36371 113.05907 164.36285 113.07031 164.36328 C 114.0907 164.57362 115.43884 164.72675 116.36328 164.64453 C 116.8654 164.60103 117.13966 164.09087 117.29297 163.50781 C 117.30959 163.49987 117.31696 163.4944 117.33398 163.48633 C 117.33831 163.42804 117.34138 163.33282 117.3457 163.27344 C 117.50464 162.49217 117.47454 161.67053 117.45508 161.67188 C 117.45373 161.67198 117.44089 161.67177 117.43945 161.67188 C 118.26917 148.63541 118.85439 117.02299 112.20898 108.29297 C 110.73464 104.91476 108.89486 101.93796 106.78125 99.337891 C 106.39091 98.77069 105.88302 98.201724 105.35547 97.671875 C 105.1363 97.452007 104.97005 97.281675 104.76172 97.070312 C 104.35121 96.643842 103.93828 96.221876 103.51172 95.820312 C 103.29295 95.604111 103.02624 95.333979 103.00781 95.339844 C 103.00504 95.340739 102.98734 95.346712 102.98438 95.347656 C 97.80315 90.660668 91.54172 87.75267 85.001953 86.556641 C 84.920254 86.543374 84.844498 86.52621 84.761719 86.513672 C 84.141807 86.404377 83.520368 86.309145 82.896484 86.230469 C 82.783037 86.21027 82.65599 86.194396 82.548828 86.171875 C 82.386485 86.137848 82.090348 86.111731 81.765625 86.097656 C 78.817692 85.813771 75.845394 85.87077 72.916016 86.257812 C 72.823579 86.249964 72.727823 86.250018 72.626953 86.267578 C 72.42268 86.302944 72.124113 86.36713 71.896484 86.408203 C 70.569584 86.619353 69.252773 86.890498 67.955078 87.238281 C 67.302022 87.404994 66.676322 87.580511 66.138672 87.767578 C 66.128531 87.77109 66.121298 87.77756 66.111328 87.78125 C 60.426105 89.614845 55.161806 92.784973 50.917969 97.246094 C 48.26694 84.070902 44.730775 56.770122 40.896484 43.945312 C 41.474933 43.610364 41.983873 43.290395 42.40625 42.988281 C 47.180078 39.572642 49.152272 34.575612 49.070312 29.460938 C 49.234017 29.426746 49.391897 29.386995 49.521484 29.328125 C 59.079015 24.979227 52.925479 24.37441 48.599609 25.488281 C 48.291232 24.075232 47.839156 22.685163 47.253906 21.34375 C 48.859728 20.322758 50.693654 19.254598 51.427734 20.292969 C 52.289034 21.510469 54.167791 21.493516 54.712891 19.916016 C 56.189091 15.651016 49.048856 15.529219 50.660156 18.386719 C 50.991003 18.974608 48.645368 19.588605 46.691406 20.150391 C 43.676556 14.200157 38.063147 9.5127634 31.269531 9.0546875 C 31.191701 7.1088335 30.922145 4.2302976 32.601562 4.0585938 C 34.086562 3.9085937 34.992472 2.2636719 33.888672 1.0136719 C 33.328047 0.3796875 32.746272 0.082311096 32.191406 0.015625 z "
     id="path6577" /></svg>