<?xml version="1.0" encoding="UTF-8" standalone="no"?>
<svg
   xmlns:dc="http://purl.org/dc/elements/1.1/"
   xmlns:cc="http://creativecommons.org/ns#"
   xmlns:rdf="http://www.w3.org/1999/02/22-rdf-syntax-ns#"
   xmlns:svg="http://www.w3.org/2000/svg"
   xmlns="http://www.w3.org/2000/svg"
   xmlns:sodipodi="http://sodipodi.sourceforge.net/DTD/sodipodi-0.dtd"
   xmlns:inkscape="http://www.inkscape.org/namespaces/inkscape"
   id="svg4171"
   version="1.1"
   xml:space="preserve"
   width="117.93563"
   height="166.10558"
   viewBox="0 0 117.93563 166.10558"
   inkscape:version="0.91 r13725"
   sodipodi:docname="giraffe.svg"><sodipodi:namedview
     pagecolor="#ffffff"
     bordercolor="#666666"
     borderopacity="1"
     objecttolerance="10"
     gridtolerance="10"
     guidetolerance="10"
     inkscape:pageopacity="0"
     inkscape:pageshadow="2"
     inkscape:window-width="1298"
     inkscape:window-height="831"
     id="namedview6584"
     showgrid="false"
     fit-margin-top="0"
     fit-margin-left="0"
     fit-margin-right="0"
     fit-margin-bottom="0"
     inkscape:zoom="2.016321"
     inkscape:cx="70.418173"
     inkscape:cy="97.670572"
     inkscape:window-x="0"
     inkscape:window-y="0"
     inkscape:window-maximized="0"
     inkscape:current-layer="svg4171" /><metadata
     id="metadata4177"><rdf:RDF><cc:Work
         rdf:about=""><dc:format>image/svg+xml</dc:format><dc:type
           rdf:resource="http://purl.org/dc/dcmitype/StillImage" /><dc:title></dc:title></cc:Work></rdf:RDF></metadata><defs
     id="defs4175" /><path
     id="path6577"
     style="fill:#d49745;fill-opacity:1;fill-rule:evenodd;stroke:none"
     d="m 22.71343,11.50397 c -2.965,-0.52875 -3.0425,-17.6112505 2.1425,-3.9850005 0.4875,1.27875 -0.2675,4.3187505 -2.1425,3.9850005"
     inkscape:connector-curvature="0" /><path
     id="path6579"
     style="fill:#d49745;fill-opacity:1;fill-rule:evenodd;stroke:none"
     d="m 45.40973,27.44272 c 0.3412,-2.9925 17.3837,-4.1525 4.1124,1.88625 -1.2437,0.565 -4.3262,0.004 -4.1124,-1.88625"
     inkscape:connector-curvature="0" /><path
     id="path6581"
     style="fill:#d49745;fill-opacity:1;fill-rule:evenodd;stroke:none"
     d="m 27.23343,40.19897 c 0.64375,21.85875 12.5375,45.9625 8.5687,92.13625 -1.1575,11.8975 -1.77995,24.44375 -2.0312,32.52625 5.7888,1.13875 4.3687,0.50875 5.2962,0.48875 3.0513,-0.0638 0.6863,-36.245 7.1438,-35.42 6.7687,0.865 -1.165,34.125 0.42,34.8775 2.17,1.03125 5.745,2.0975 5.9838,-0.13 6.6875,-62.535 45.7412,-57.78625 45.5937,0.0412 0,0.085 6.37,1.49625 6.4063,-0.8725 0.1387,-8.8175 -2.5575,-14.21375 -1.625,-24.02125 1.015,-10.67625 6.6787,-8.17 7.5462,2.6925 0.6513,8.155 1.6425,21.81375 2.5113,21.845 3.57,0.135 1.8937,0.2575 4.2862,-0.87625 0.875,-11.80125 1.8125,-46.07875 -5.125,-55.1925 -11.4137,-26.1525 -44.42,-28.78375 -61.2912,-11.04875 -3.5313,-17.55 -8.6313,-60.165 -13.9175,-60.24125 -4.96755,-0.07 -6.7713,2.3475 -9.7663,3.195"
     inkscape:connector-curvature="0" /><path
     id="path6583"
     style="fill:#ecb059;fill-opacity:1;fill-rule:evenodd;stroke:none"
     d="m 42.40593,42.98772 c 18.4925,-13.23125 -4.7912,-50.1687505 -28.45,-25.91125 -3.9799999,4.08125 -9.6887499,11.18125 -12.5362499,19.4575 -1.80624995,5.25125 -1.82999995,9.92375 0.0725,12.4325 6.4475,8.495 34.2012499,-1.1775 40.9137499,-5.97875"
     inkscape:connector-curvature="0" /><path
     id="path6585"
     style="fill:#6e3b0b;fill-opacity:1;fill-rule:evenodd;stroke:none"
     d="m 29.73093,10.39272 c 0,-1.4662505 1.825,-6.6012505 0.83375,-6.6012505 -3.27875,0 0.33375,-6.15875 3.32375,-2.7775 1.1038,1.25 0.1975,2.89375 -1.2875,3.04375 -2.17625,0.2225 -1.07375,5.01125 -1.36625,6.3925005 -0.1425,0.1275 -0.47375,0.0113 -0.7175,0.0113 -0.19875,0 -0.78625,0.02 -0.78625,-0.0688"
     inkscape:connector-curvature="0" /><path
     id="path6587"
     style="fill:#6e3b0b;fill-opacity:1;fill-rule:evenodd;stroke:none"
     d="m 44.50223,20.90522 c 1.2775,-0.72 6.645,-1.6525 6.1575,-2.51875 -1.6113,-2.8575 5.5287,-2.73625 4.0525,1.52875 -0.5451,1.5775 -2.4225,1.595 -3.2838,0.3775 -1.0675,-1.51 -4.4737,1.4375 -6.0975,2.21125 -0.4737,-0.7925 -0.23,-0.395 -0.5025,-0.88125 -0.099,-0.1725 -0.405,-0.67375 -0.3262,-0.7175"
     inkscape:connector-curvature="0" /><path
     id="path6589"
     style="fill:#8d6b44;fill-opacity:1;fill-rule:evenodd;stroke:none"
     d="M 0.14343015,42.15147 C 8.8409301,43.14272 9.8034301,52.34897 8.8171801,52.32272 0.75343015,52.10397 -0.49406985,46.48522 0.14343015,42.15147"
     inkscape:connector-curvature="0" /><path
     id="path6591"
     style="fill:#6e3b0b;fill-opacity:1;fill-rule:evenodd;stroke:none"
     d="m 33.68093,162.18147 c -0.0125,0.335 0.0613,2.60625 0.1875,2.63875 1.29,0.34125 3.3025,0.67875 4.6313,0.67875 1.5687,0 1.815,-2.86375 1.7687,-2.86375 -0.4938,-0.005 -5.69,-0.345 -5.78,-0.37875 -0.045,-0.015 -0.805,-0.13375 -0.8075,-0.075"
     inkscape:connector-curvature="0" /><path
     id="path6593"
     style="fill:#6e3b0b;fill-opacity:1;fill-rule:evenodd;stroke:none"
     d="m 46.45963,162.75897 c -0.015,0.335 -0.1062,2.61875 0.019,2.6525 1.29,0.34 3.3187,0.47375 4.6325,0.67875 1.6712,0.26 1.7137,-2.8675 1.6662,-2.8675 -0.4925,-0.005 -5.5875,-0.34375 -5.68,-0.375 -0.044,-0.0163 -0.635,-0.1475 -0.6375,-0.0888"
     inkscape:connector-curvature="0" /><path
     id="path6595"
     style="fill:#6e3b0b;fill-opacity:1;fill-rule:evenodd;stroke:none"
     d="m 98.18723,162.01772 c 0,0.35375 -0.1188,2.7575 0.015,2.78625 1.3725,0.2975 3.9662,0.4525 5.365,0.39 1.6512,-0.0738 1.0912,-2.9925 1.0425,-2.99125 -0.5213,0.0188 -5.7801,-0.0975 -5.8763,-0.12625 -0.049,-0.0163 -0.5463,-0.12125 -0.5463,-0.0588"
     inkscape:connector-curvature="0" /><path
     id="path6597"
     style="fill:#6e3b0b;fill-opacity:1;fill-rule:evenodd;stroke:none"
     d="m 112.31723,161.66772 c 0.013,0.33375 0.2675,2.59375 0.3687,2.61875 1.0363,0.25125 2.6375,0.45 3.6775,0.3575 1.2263,-0.10625 1.1288,-2.975 1.0925,-2.9725 -0.3862,0.0288 -4.4062,0.0438 -4.48,0.0175 -0.036,-0.0137 -0.6625,-0.0812 -0.6587,-0.0213"
     inkscape:connector-curvature="0" /><path
     id="path6599"
     style="fill:#42372a;fill-opacity:1;fill-rule:evenodd;stroke:none"
     d="m 22.70968,39.46272 c -0.37375,2.36125 0.055,4.26375 2.55375,5.12125 1.17875,0.405 1.8575,0.30125 3.00375,0.075 0.0575,-0.0175 0.11625,0.0112 0.13375,0.0675 0.02,0.0562 -0.0113,0.11625 -0.0662,0.13375 -0.46375,0.0925 -0.855,0.165 -1.22875,0.19625 0.0712,0.545 0.1375,1.0875 0.2075,1.6325 0.0388,0.045 0.0325,0.11125 -0.0125,0.14875 -0.0462,0.0375 -0.1125,0.0312 -0.15,-0.0125 -0.13125,-0.56875 -0.1825,-1.17625 -0.2575,-1.75625 -0.475,0.0175 -0.945,-0.0425 -1.5325,-0.22875 -0.1175,0.91625 -0.0525,0.44625 -0.20875,1.47125 -0.0213,0.055 -0.0838,0.0825 -0.1375,0.06 -0.055,-0.02 -0.08,-0.0825 -0.0612,-0.13625 0.145,-0.9875 0.08,-0.52 0.2075,-1.4625 -0.43625,-0.1525 -0.81125,-0.33625 -1.1325,-0.545 -0.3725,0.45875 -0.5225,0.84125 -0.90125,1.32125 -0.045,0.0387 -0.1125,0.0312 -0.15,-0.0138 -0.035,-0.045 -0.0312,-0.1125 0.0137,-0.15 0.35875,-0.465 0.49375,-0.815 0.86625,-1.27875 -0.3675,-0.27 -0.6575,-0.5825 -0.8775,-0.93 -0.46,0.2675 -0.625,0.46875 -1.205,0.76375 l -0.02,0.02 c -0.0462,0.0387 -0.11375,0.0337 -0.15,-0.0138 -0.0375,-0.0437 -0.0312,-0.11125 0.0137,-0.14875 0,0 0.945,-0.60375 1.2575,-0.79625 -0.24375,-0.4425 -0.39,-0.93625 -0.4525,-1.4725 -1.0375,0.4125 -0.5475,0.24 -1.56125,0.56 -0.0462,0.0375 -0.1125,0.0325 -0.14875,-0.0125 -0.0387,-0.0437 -0.0337,-0.1125 0.0113,-0.15 1.0975,-0.36875 0.53875,-0.1675 1.67625,-0.61 -0.0213,-0.2775 -0.025,-0.5675 -0.01,-0.86625 -0.97,0.0875 -0.48875,0.0362 -1.51125,0.165 -0.0587,0.01 -0.1125,-0.03 -0.12125,-0.0863 -0.01,-0.0588 0.0287,-0.11375 0.0862,-0.12375 1.04875,-0.1325 0.54,-0.0775 1.56,-0.16875 0.0212,-0.2675 0.0537,-0.54 0.0975,-0.8225 0.0137,-0.0563 0.0688,-0.0913 0.12625,-0.08 0.0575,0.0125 0.0937,0.0687 0.0812,0.12875"
     inkscape:connector-curvature="0" /><path
     id="path6601"
     style="fill:#4b443c;fill-opacity:1;fill-rule:evenodd;stroke:none"
     d="m 27.23343,47.21647 c -0.1375,0 -0.265,-0.06 -0.3525,-0.16375 l -0.0738,-0.1475 c -0.1075,-0.46 -0.16375,-0.9375 -0.2175,-1.4 l -0.01,-0.0825 c -0.30125,-0.0112 -0.60125,-0.0537 -0.91875,-0.13125 -0.0362,0.27875 -0.0375,0.28625 -0.08,0.57625 l -0.0788,0.4975 c -0.085,0.25 -0.25875,0.36875 -0.44875,0.36875 l -0.17125,-0.0337 -0.1325,-0.0537 -0.17625,-0.32 0.1,-0.6075 0.0987,-0.71375 c -0.23125,-0.0925 -0.45,-0.19625 -0.6525,-0.31 -0.09,0.13 -0.16625,0.255 -0.24375,0.38125 -0.135,0.22 -0.275,0.44375 -0.46875,0.69125 l -0.10875,0.135 -0.23875,0.025 c -0.13625,0 -0.26625,-0.06 -0.35375,-0.165 -0.1625,-0.20125 -0.13375,-0.49125 0.06,-0.64875 0.1075,-0.155 0.22,-0.33875 0.3325,-0.52375 0.0863,-0.13875 0.17125,-0.2775 0.2725,-0.4225 -0.18,-0.1575 -0.3425,-0.32875 -0.48625,-0.51125 -0.0612,0.0412 -0.1175,0.08 -0.175,0.12125 -0.19625,0.14125 -0.4025,0.2875 -0.74375,0.46375 -0.23375,0.17125 -0.49125,0.1125 -0.6375,-0.07 l -0.0912,-0.1125 -0.0113,-0.22125 c 0.0113,-0.1225 0.07,-0.235 0.1675,-0.31375 0.0237,-0.0263 0.64875,-0.41875 1.02125,-0.65375 -0.115,-0.26375 -0.20625,-0.54625 -0.27,-0.8475 l -0.0862,0.035 c -0.315,0.1275 -0.31625,0.1275 -0.6675,0.2375 l -0.5975,0.17375 c -0.1375,0 -0.26625,-0.06 -0.355,-0.1675 l -0.09,-0.11125 -0.0137,-0.22375 c 0.0113,-0.1225 0.0688,-0.235 0.165,-0.31375 l 0.11375,-0.0612 0.4725,-0.15875 c 0.32875,-0.11 0.32875,-0.10875 0.63,-0.2275 l 0.31625,-0.125 c -0.002,-0.0788 -0.005,-0.16 -0.005,-0.24125 l -0.025,0.002 c -0.29875,0.0263 -0.29875,0.0263 -0.59375,0.0637 l -0.485,0.0625 c -0.27375,0.0325 -0.4775,-0.1575 -0.515,-0.38 -0.04,-0.255 0.13,-0.4925 0.38,-0.53125 l 0.50625,-0.065 c 0.31,-0.04 0.31,-0.0387 0.62625,-0.0688 l 0.1575,-0.0137 c 0.02,-0.18 0.0438,-0.36375 0.0725,-0.55 0.0538,-0.235 0.2375,-0.38125 0.455,-0.38125 l 0.1,0.01 c 0.24875,0.0563 0.40375,0.30375 0.35,0.55 -0.41125,2.595 0.2825,4.01125 2.3225,4.71125 0.515,0.17625 0.935,0.25625 1.3675,0.25625 l 0,0 c 0.4425,0 0.88125,-0.0813 1.4525,-0.19375 l 0.10375,-0.0113 c 0.19875,0 0.37375,0.12625 0.435,0.315 l 0.0462,0.13875 -0.07,0.2125 c -0.055,0.11 -0.15125,0.1925 -0.26625,0.23 -0.34875,0.0738 -0.655,0.13125 -0.945,0.17125 l 0.18875,1.43 c -0.009,0.1225 -0.0688,0.2325 -0.1625,0.31125 l -0.0987,0.0825 -0.19625,0.025"
     inkscape:connector-curvature="0" /><path
     id="path6603"
     style="fill:#42372a;fill-opacity:1;fill-rule:evenodd;stroke:none"
     d="m 9.9084301,26.00272 c -0.7125,2.28625 -0.56125,4.23 1.7862499,5.43875 1.10875,0.57125 1.795,0.5675 2.9625,0.50875 0.0575,-0.01 0.1125,0.0288 0.12375,0.0875 0.009,0.0563 -0.0287,0.11125 -0.0862,0.12125 -0.4725,0.025 -0.8675,0.04 -1.245,0.0162 -0.008,0.55 -0.0213,1.09625 -0.0288,1.64625 0.0312,0.0488 0.015,0.115 -0.035,0.14625 -0.05,0.0288 -0.115,0.015 -0.14625,-0.0362 -0.0487,-0.5825 -0.0113,-1.1875 0,-1.77375 -0.47375,-0.0525 -0.93,-0.17875 -1.485,-0.4475 -0.24875,0.88875 -0.11625,0.43375 -0.41875,1.42625 -0.0275,0.05 -0.0937,0.0688 -0.145,0.04 -0.0513,-0.0288 -0.0688,-0.0937 -0.04,-0.145 0.2875,-0.95625 0.15375,-0.50375 0.41625,-1.4175 -0.41,-0.21375 -0.75375,-0.44875 -1.0425,-0.705 -0.435,0.4025 -0.6399999,0.76 -1.0824999,1.17875 -0.05,0.03 -0.11375,0.0163 -0.14625,-0.035 -0.0312,-0.0488 -0.015,-0.115 0.035,-0.145 0.4225,-0.4075 0.60625,-0.73625 1.0424999,-1.14125 -0.325,-0.32125 -0.5674999,-0.67125 -0.7349999,-1.0475 -0.495,0.1975 -0.68625,0.375 -1.3,0.5825 l -0.0275,0.0175 c -0.05,0.03 -0.11375,0.0163 -0.14625,-0.035 -0.03,-0.05 -0.0138,-0.115 0.035,-0.14625 0.002,0 1.02375,-0.46125 1.36,-0.60875 -0.1775,-0.47125 -0.25,-0.98 -0.235,-1.52 -1.08375,0.25875 -0.57625,0.15875 -1.62625,0.33 -0.0488,0.03 -0.11375,0.0137 -0.145,-0.035 -0.03,-0.05 -0.015,-0.11625 0.035,-0.14625 1.13875,-0.2075 0.55625,-0.0888 1.74625,-0.36125 0.0175,-0.28 0.0575,-0.56625 0.115,-0.86 -0.97375,-0.0525 -0.4875,-0.0337 -1.52,-0.0537 -0.0575,0 -0.10625,-0.0462 -0.1075,-0.105 -10e-4,-0.0587 0.045,-0.10625 0.105,-0.10625 1.05625,0.0188 0.54375,0 1.56625,0.055 0.06,-0.26125 0.13125,-0.5275 0.21625,-0.79875 0.02,-0.0538 0.0812,-0.0813 0.13625,-0.0613 0.0562,0.0213 0.0825,0.0825 0.0625,0.13625"
     inkscape:connector-curvature="0" /><path
     id="path6605"
     style="fill:#4b443c;fill-opacity:1;fill-rule:evenodd;stroke:none"
     d="m 13.33093,34.33772 c -0.16125,0 -0.3075,-0.0825 -0.3925,-0.21875 l -0.05,-0.1575 c -0.0412,-0.4675 -0.0275,-0.945 -0.0138,-1.40625 l 0.004,-0.0925 c -0.29875,-0.055 -0.58875,-0.14 -0.8925,-0.2625 -0.0725,0.26375 -0.0775,0.27625 -0.1575,0.53875 l -0.15375,0.5 c -0.1075,0.21375 -0.2625,0.305 -0.43125,0.305 l -0.0937,0 -0.1325,-0.06 c -0.105,-0.0575 -0.18375,-0.15625 -0.2175,-0.275 l -0.04,-0.1425 0.1825,-0.57 0.205,-0.70875 c -0.215,-0.125 -0.41625,-0.26 -0.59875,-0.4 -0.10875,0.11375 -0.2025,0.2275 -0.2975,0.34 -0.16625,0.2 -0.3349999,0.4 -0.5649999,0.6175 l -0.1025,0.0975 -0.19625,0.015 c -0.16125,0 -0.3125,-0.085 -0.39375,-0.22125 l -0.075,-0.125 0.02,-0.22125 c 0.03,-0.11875 0.10625,-0.22375 0.2125,-0.28625 0.1275,-0.13625 0.26625,-0.30375 0.405,-0.47125 0.1025,-0.12375 0.20625,-0.2475 0.32625,-0.375 -0.155,-0.1825 -0.29,-0.37625 -0.4075,-0.57875 -0.0662,0.0325 -0.1275,0.0638 -0.18875,0.0962 -0.215,0.11 -0.435,0.22375 -0.79125,0.3475 l -0.05,0.0337 -0.18875,0.0337 c -0.16125,0 -0.3075,-0.0838 -0.3925,-0.21875 -0.13125,-0.2175 -0.065,-0.5 0.1475,-0.63375 -0.009,-0.002 0.003,-0.0138 1.1125,-0.50375 -0.0763,-0.27625 -0.125,-0.57 -0.145,-0.87625 l -0.0838,0.02 c -0.335,0.0825 -0.335,0.0825 -0.6925,0.13875 l -0.55875,0.0913 c -0.1575,0 -0.305,-0.08 -0.39,-0.215 l -0.0788,-0.125 0.055,-0.37 0.295,-0.18875 0.49875,-0.09 c 0.33625,-0.06 0.33625,-0.06 0.655,-0.13375 l 0.325,-0.0763 c 0.01,-0.0787 0.0187,-0.15875 0.03,-0.24 l -0.025,-0.001 c -0.30125,-0.0175 -0.30125,-0.0175 -0.5975,-0.0225 l -0.48625,-0.009 c -0.24625,0 -0.4525,-0.2025 -0.4575,-0.45125 -0.003,-0.255 0.20125,-0.465 0.45125,-0.47 l 0.50625,0.009 c 0.315,0.006 0.315,0.006 0.63,0.0238 l 0.16375,0.009 c 0.0462,-0.17625 0.0963,-0.35375 0.1525,-0.53375 0.0762,-0.19875 0.24875,-0.3175 0.4375,-0.3175 l 0.1625,0.03 c 0.2387499,0.0937 0.3562499,0.35875 0.2687499,0.5925 -0.7812499,2.51125 -0.2999999,4.01125 1.6175,5 1.0875,0.56 1.71,0.5225 2.78375,0.46875 0,0 0.003,0 0.005,0 0.25875,0 0.445,0.16 0.4825,0.3825 0.045,0.24375 -0.12125,0.485 -0.37125,0.52875 -0.38375,0.0225 -0.685,0.0263 -0.96,0.0337 l -0.0213,1.18 0.0238,0.0362 -0.055,0.365 -0.25625,0.19875 -0.1575,0.0163"
     inkscape:connector-curvature="0" /><path
     id="path6607"
     style="fill:#8d6b44;fill-opacity:1;fill-rule:evenodd;stroke:none"
     d="m 58.93343,95.68897 c 0.6738,0.0163 5.6275,-0.34125 5.74,-0.8 2.2088,-8.925 -13.88,0.6 -5.74,0.8"
     inkscape:connector-curvature="0" /><path
     id="path6609"
     style="fill:#8d6b44;fill-opacity:1;fill-rule:evenodd;stroke:none"
     d="m 79.90343,86.36772 c -0.6275,0.44375 -5.9975,5.12 -0.135,5.26375 0.6738,0.0175 5.39,-0.485 5.74,-0.8 4.8613,-4.3775 -0.2062,-4.08125 -2.96,-4.66 -0.495,-0.10375 -2.1013,-0.18875 -2.645,0.19625"
     inkscape:connector-curvature="0" /><path
     id="path6611"
     style="fill:#8d6b44;fill-opacity:1;fill-rule:evenodd;stroke:none"
     d="m 103.00843,95.34022 c -0.7312,0.23625 -8.405,2.19 -3.96,6.01375 0.3163,0.2725 4.8025,1.75875 5.5588,1.6375 4.585,-0.7325 2.7375,-3.32125 0.7474,-5.32 -1.1775,-1.18125 -2.2912,-2.34875 -2.3462,-2.33125"
     inkscape:connector-curvature="0" /><path
     id="path6613"
     style="fill:#8d6b44;fill-opacity:1;fill-rule:evenodd;stroke:none"
     d="m 68.54473,92.78772 c 0.3212,0.007 1.9687,0.51625 3.1887,-0.0325 1.33,-0.5975 2.2325,-2.2675 2.29,-2.505 0.54,-2.1825 -0.075,-4.2125 -1.3962,-3.9825 -1.805,0.3125 -4.635,0.855 -6.4888,1.5 -2.0212,0.7 -0.655,4.94625 2.4063,5.02"
     inkscape:connector-curvature="0" /><path
     id="path6615"
     style="fill:#8d6b44;fill-opacity:1;fill-rule:evenodd;stroke:none"
     d="m 95.81343,91.03522 c -1.23,-0.46375 -1.7425,-0.75875 -3.14,-1.0825 -1.6675,-0.38875 -2.7675,-0.20875 -4.31,0.55125 -0.4925,0.2425 -1.345,1.55 -1.345,2.18125 0,1.15 0.12,3.45 1.6525,3.45 1.4613,0 4.8275,-0.7425 5.8038,-0.18125 1.2912,0.7425 3.5037,0.7225 4.53,-0.19375 1.0137,-0.905 0.8625,-2.70125 -0.1475,-2.62375 -0.3363,0.0238 -1.0625,-1.35625 -3.0438,-2.10125"
     inkscape:connector-curvature="0" /><path
     id="path6617"
     style="fill:#8d6b44;fill-opacity:1;fill-rule:evenodd;stroke:none"
     d="m 57.04093,97.89272 c -0.8538,-0.32125 -1.21,-0.52625 -2.18,-0.75125 -1.155,-0.26875 -1.9188,-0.14375 -2.9887,0.38375 -0.3425,0.17 -0.9338,1.07625 -0.9338,1.51375 0,0.7975 0.082,2.39375 1.1463,2.39375 1.0125,0 3.3487,-0.51625 4.0275,-0.125 2.3012,1.3225 6.0962,-1.4675 0.9287,-3.415"
     inkscape:connector-curvature="0" /><path
     id="path6619"
     style="fill:#8d6b44;fill-opacity:1;fill-rule:evenodd;stroke:none"
     d="m 69.21593,98.62147 c 0.9213,0.2825 1.3113,0.47625 2.35,0.65 1.2363,0.20625 2.0338,0.025 3.1288,-0.6025 0.35,-0.2 0.915,-1.195 0.8862,-1.65625 -0.051,-0.8425 -0.2463,-2.5225 -1.3687,-2.4525 -1.0676,0.0662 -3.4988,0.76375 -4.2413,0.3975 -2.5125,-1.24625 -6.3362,1.94875 -0.755,3.66375"
     inkscape:connector-curvature="0" /><path
     id="path6621"
     style="fill:#8d6b44;fill-opacity:1;fill-rule:evenodd;stroke:none"
     d="m 79.63843,96.76897 c 0.92,0.2825 2.005,1.9825 3.0425,2.15375 1.2375,0.2075 5.495,0.58875 5.6775,-0.65875 0.3125,-2.12875 -1.5275,-0.6925 -2.2837,-1.53 -0.4688,-0.52375 -0.061,-1.39875 -0.072,-1.575 -0.053,-0.8425 -0.245,-2.52125 -1.3676,-2.45125 -1.0699,0.0663 -3.5012,0.76375 -4.2425,0.3975 -2.5137,-1.24625 -6.3362,1.95 -0.7537,3.66375"
     inkscape:connector-curvature="0" /><path
     id="path6623"
     style="fill:#8d6b44;fill-opacity:1;fill-rule:evenodd;stroke:none"
     d="m 91.06723,101.56397 c 0.6325,0.72625 0.5912,2.82 1.445,3.4375 5.8374,4.22375 1.4849,-0.585 4.8099,-1.44125 0.8151,-0.21 1.1238,-2.27 0.1338,-2.80375 -0.9437,-0.5075 -3.3775,-1.2 -3.8113,-1.90375 -1.4762,-2.38625 -6.41,-1.69375 -2.5774,2.71125"
     inkscape:connector-curvature="0" /><path
     id="path6625"
     style="fill:#8d6b44;fill-opacity:1;fill-rule:evenodd;stroke:none"
     d="m 66.40093,100.49397 c -0.5737,-0.41125 -0.8987,-1.915 -1.6125,-2.21125 -4.8825,-2.02875 -0.9625,0.66875 -3.1912,1.8425 -0.5475,0.2875 -0.4188,1.81 0.3775,2.025 0.76,0.2025 1.69,1.58875 2.1212,2.0175 1.4563,1.45375 5.7863,-1.175 2.305,-3.67375"
     inkscape:connector-curvature="0" /><path
     id="path6627"
     style="fill:#8d6b44;fill-opacity:1;fill-rule:evenodd;stroke:none"
     d="m 77.26223,97.81147 c -0.3975,0.62375 -0.4463,2.08 -1.1488,2.465 -0.4025,0.22125 -0.37,1.495 -0.023,1.86375 0.655,0.69625 0.6888,0.73125 1.7025,1.07875 0.5412,0.185 2.815,0.3075 2.815,-0.82375 0,-1.3375 -2,-0.925 -0.845,-1.76125 1.3025,-0.94125 -1.255,-4.7725 -2.5012,-2.8225"
     inkscape:connector-curvature="0" /><path
     id="path6629"
     style="fill:#8d6b44;fill-opacity:1;fill-rule:evenodd;stroke:none"
     d="m 35.58463,88.09147 c 0.385,0.8825 -0.2012,2.81125 0.3413,3.7125 0.6463,1.075 3.1225,4.56 4.19,3.8875 1.8213,-1.14625 -0.4675,-1.6125 -0.32,-2.72875 0.09,-0.69875 1.0213,-0.9575 1.1488,-1.08 0.6062,-0.58625 1.7574,-1.82375 0.9737,-2.63125 -0.745,-0.77125 -2.8562,-2.165 -3.0575,-2.9675 -0.6862,-2.72 -5.59875,-3.54875 -3.2763,1.8075"
     inkscape:connector-curvature="0" /><path
     id="path6631"
     style="fill:#8d6b44;fill-opacity:1;fill-rule:evenodd;stroke:none"
     d="m 44.08593,73.95772 c -0.3988,0.6225 -0.4475,2.07875 -1.1513,2.465 -0.4,0.22 -0.3687,1.49375 -0.021,1.8625 0.655,0.69625 0.69,0.7325 1.7025,1.07875 0.5425,0.185 2.8137,0.3075 2.8137,-0.8225 0,-1.3375 -1.9987,-0.92625 -0.8412,-1.7625 1.3012,-0.94 -1.255,-4.7725 -2.5025,-2.82125"
     inkscape:connector-curvature="0" /><path
     id="path6633"
     style="fill:#8d6b44;fill-opacity:1;fill-rule:evenodd;stroke:none"
     d="m 30.46968,50.57772 c -0.60125,0.43125 -0.4475,2.08 -1.15125,2.465 -0.4,0.22 -0.3675,1.495 -0.0213,1.86375 1.67125,1.7725 2.53125,1.0125 4.51625,0.25625 1.0325,-0.395 2.1525,-8.5325 -3.34375,-4.585"
     inkscape:connector-curvature="0" /><path
     id="path6635"
     style="fill:#8d6b44;fill-opacity:1;fill-rule:evenodd;stroke:none"
     d="m 37.86093,51.50647 c -0.6012,0.43125 1.2313,6.8275 0.5275,7.21375 -0.4,0.22 -0.3687,1.49375 -0.023,1.86125 1.67,1.775 2.5312,1.01625 4.5163,0.2575 1.0325,-0.39375 0.4737,-13.27875 -5.0213,-9.3325"
     inkscape:connector-curvature="0" /><path
     id="path6637"
     style="fill:#8d6b44;fill-opacity:1;fill-rule:evenodd;stroke:none"
     d="m 36.66713,63.53522 c 0.3963,0.6225 -0.8287,3.47 -0.1237,3.855 0.4013,0.22 0.3675,1.495 0.021,1.8625 -0.6563,0.69625 -0.6901,0.73125 -1.7038,1.07875 -0.5425,0.18625 -2.8125,0.3075 -2.8125,-0.8225 0,-1.3375 1.99875,-0.92625 0.8425,-1.7625 -1.3025,-0.94125 2.5287,-6.16125 3.7762,-4.21125"
     inkscape:connector-curvature="0" /><path
     id="path6639"
     style="fill:#8d6b44;fill-opacity:1;fill-rule:evenodd;stroke:none"
     d="m 38.37713,83.32772 c 0.9838,0.86125 1.3563,1.3175 2.5463,2.10875 1.415,0.94375 2.5025,1.16125 4.2062,0.99375 0.5425,-0.0538 1.7951,-0.97125 2.0163,-1.55875 0.4025,-1.07125 1.0975,-3.255 -0.33,-3.7925 -1.3613,-0.51125 -4.7562,-0.9975 -5.47,-1.86375 -2.4175,-2.9375 -8.92,-1.10875 -2.9687,4.1125"
     inkscape:connector-curvature="0" /><path
     id="path6641"
     style="fill:#8d6b44;fill-opacity:1;fill-rule:evenodd;stroke:none"
     d="m 40.07963,69.26397 c -1.1687,0.38 -1.7174,0.46375 -2.9287,1.04375 -1.445,0.6925 -2.1425,1.4675 -2.8262,2.92625 -0.21755,0.465 -0.077,1.9175 0.2912,2.38 0.6738,0.84125 2.1062,2.45375 3.2275,1.555 1.0675,-0.85375 3.0925,-3.36625 4.1362,-3.5275 1.3775,-0.2125 2.9825,-1.52125 3.1975,-2.7925 0.2113,-1.25375 -0.9499,-2.4775 -1.6437,-1.83 -0.2288,0.215 -1.5688,-0.36875 -3.4538,0.245"
     inkscape:connector-curvature="0" /><path
     id="path6643"
     style="fill:#8d6b44;fill-opacity:1;fill-rule:evenodd;stroke:none"
     d="m 39.78593,66.57522 c 0.5375,0.0163 4.4688,-0.3425 4.5588,-0.79875 1.7537,-8.9275 -11.02255,0.59875 -4.5588,0.79875"
     inkscape:connector-curvature="0" /><path
     id="path6645"
     style="fill:#8d6b44;fill-opacity:1;fill-rule:evenodd;stroke:none"
     d="m 31.90843,59.21397 c 0.49,-0.3525 -0.33125,-1.99 0.2825,-2.24375 4.1875,-1.74 2.3875,-0.7 4.2987,0.3075 0.47,0.245 -0.1037,3.17375 -0.7862,3.35625 -0.6513,0.175 -1.45,1.36375 -1.8175,1.7325 -1.25,1.24625 -4.96375,-1.0075 -1.9775,-3.1525"
     inkscape:connector-curvature="0" /><path
     id="path6647"
     style="fill:#8d6b44;fill-opacity:1;fill-rule:evenodd;stroke:none"
     d="m 38.71593,46.72522 c -0.4287,0.25 -1.3825,-0.91 -1.7763,-0.5375 -2.70245,2.56 -1.3225,1.5575 -1.205,3.32625 0.028,0.435 2.415,0.9825 2.78,0.5325 0.3476,-0.43125 1.5063,-0.63375 1.905,-0.7875 1.3538,-0.51875 0.8988,-4.0575 -1.7037,-2.53375"
     inkscape:connector-curvature="0" /><path
     id="path6649"
     style="fill:#8d6b44;fill-opacity:1;fill-rule:evenodd;stroke:none"
     d="m 45.56093,91.94022 c -0.068,0.49125 -1.57,0.525 -1.5188,1.0675 0.3463,3.705 0.4088,2.00125 1.8738,3.00125 0.36,0.245 2.2625,-1.295 2.1325,-1.86125 -0.1237,-0.53875 0.4325,-1.575 0.5575,-1.98375 0.4238,-1.385 -2.6375,-3.2125 -3.045,-0.22375"
     inkscape:connector-curvature="0" /><path
     id="path6651"
     style="fill:#8d6b44;fill-opacity:1;fill-rule:evenodd;stroke:none"
     d="m 41.61093,102.22272 c 0.067,0.4925 1.5688,0.52625 1.5188,1.0675 -0.3463,3.70625 -0.4088,2.00125 -1.8738,3.00125 -0.3588,0.24625 -2.2625,-1.29375 -2.1325,-1.86 0.1238,-0.54 -0.4337,-1.575 -0.5587,-1.98375 -0.4251,-1.38625 2.6387,-3.2125 3.0462,-0.225"
     inkscape:connector-curvature="0" /><path
     id="path6653"
     style="fill:#8d6b44;fill-opacity:1;fill-rule:evenodd;stroke:none"
     d="m 50.32463,112.64522 c -0.1975,0.45625 -0.7325,0.7575 -0.6812,1.29875 0.345,3.70625 0.41,2.00125 1.8737,3.00125 0.3601,0.245 1.5625,-1.7475 2.1326,-1.86125 2.7687,-0.55375 -0.3063,-9.51 -3.325,-2.43875"
     inkscape:connector-curvature="0" /><path
     id="path6655"
     style="fill:#8d6b44;fill-opacity:1;fill-rule:evenodd;stroke:none"
     d="m 100.79473,108.55397 c -0.1088,0.2575 -0.4138,0.42875 -0.3838,0.735 0.195,2.1 0.2313,1.135 1.06,1.7 0.205,0.13875 0.8863,-0.98875 1.2088,-1.05375 1.5687,-0.31375 -0.175,-5.38625 -1.885,-1.38125"
     inkscape:connector-curvature="0" /><path
     id="path6657"
     style="fill:#8d6b44;fill-opacity:1;fill-rule:evenodd;stroke:none"
     d="m 87.62593,102.43022 c 0.1113,0.25875 0.4138,0.42875 0.385,0.735 -0.195,2.1 -0.2312,1.135 -1.0612,1.7 -0.2026,0.14 -0.885,-0.98875 -1.2088,-1.05375 -1.5675,-0.31375 0.175,-5.38625 1.885,-1.38125"
     inkscape:connector-curvature="0" /><path
     id="path6659"
     style="fill:#8d6b44;fill-opacity:1;fill-rule:evenodd;stroke:none"
     d="m 110.15843,117.33772 c -0.11,0.25875 -0.4125,0.42875 -0.385,0.735 0.1963,2.09875 0.2325,1.13375 1.0625,1.70125 0.2025,0.1375 0.885,-0.99 1.2075,-1.055 1.5688,-0.31375 -0.175,-5.38625 -1.885,-1.38125"
     inkscape:connector-curvature="0" /><path
     id="path6661"
     style="fill:#8d6b44;fill-opacity:1;fill-rule:evenodd;stroke:none"
     d="m 31.24843,11.98522 c -0.43,0.25 -1.38375,-0.91125 -1.77875,-0.5375 -2.70125,2.56 -1.32125,1.5575 -1.205,3.3275 0.0288,0.43375 2.415,0.98125 2.78125,0.53125 0.3475,-0.43125 1.505,-0.63375 1.905,-0.7875 1.3525,-0.52 0.89875,-4.0575 -1.7025,-2.53375"
     inkscape:connector-curvature="0" /><path
     id="path6663"
     style="fill:#8d6b44;fill-opacity:1;fill-rule:evenodd;stroke:none"
     d="m 37.02213,16.61647 c 0.5951,0.2925 0,2.205 0.7088,2.37125 4.8275,1.125 2.7012,0.325 4.5825,-1.1025 0.4613,-0.35 -0.6812,-3.4025 -1.4512,-3.47875 -0.7338,-0.0738 -1.8075,-1.21125 -2.27,-1.5425 -1.5713,-1.12125 -5.1713,1.97875 -1.57,3.7525"
     inkscape:connector-curvature="0" /><path
     id="path6665"
     style="fill:#8d6b44;fill-opacity:1;fill-rule:evenodd;stroke:none"
     d="m 43.08463,23.32897 c -0.3974,0.19625 0,1.48375 -0.475,1.59375 -3.2462,0.7575 -1.8162,0.21875 -3.0812,-0.74 -0.3113,-0.23625 0.4575,-2.29 0.9762,-2.34125 0.4938,-0.0475 1.215,-0.8125 1.525,-1.03625 1.0575,-0.75375 3.4788,1.33 1.055,2.52375"
     inkscape:connector-curvature="0" /><path
     id="path6667"
     style="fill:#8d6b44;fill-opacity:1;fill-rule:evenodd;stroke:none"
     d="m 35.62223,20.61897 c -0.225,0.78875 -2.31755,0.12875 -2.3888,-0.85125 -0.0362,-0.49375 -0.9725,-1.11375 -1.11375,-1.47125 -0.91875,-2.31125 4.76625,-2.08875 3.50255,2.3225"
     inkscape:connector-curvature="0" /><path
     id="path6669"
     style="fill:#8d6b44;fill-opacity:1;fill-rule:evenodd;stroke:none"
     d="m 46.50463,31.19147 c -0.2262,0.78875 -2.3187,0.12875 -2.3887,-0.85125 -0.038,-0.49375 -0.975,-1.115 -1.1162,-1.47125 -0.9163,-2.3125 4.7662,-2.09 3.5049,2.3225"
     inkscape:connector-curvature="0" /></svg>