<?xml version="1.0" encoding="UTF-8" standalone="no"?>
<svg
   xmlns:dc="http://purl.org/dc/elements/1.1/"
   xmlns:cc="http://creativecommons.org/ns#"
   xmlns:rdf="http://www.w3.org/1999/02/22-rdf-syntax-ns#"
   xmlns:svg="http://www.w3.org/2000/svg"
   xmlns="http://www.w3.org/2000/svg"
   xmlns:sodipodi="http://sodipodi.sourceforge.net/DTD/sodipodi-0.dtd"
   xmlns:inkscape="http://www.inkscape.org/namespaces/inkscape"
   id="svg4171"
   version="1.1"
   xml:space="preserve"
   width="98.715111"
   height="140.64731"
   viewBox="0 0 98.715111 140.64731"
   inkscape:version="0.91 r13725"
   sodipodi:docname="monkey_gray.svg"><sodipodi:namedview
     pagecolor="#ffffff"
     bordercolor="#666666"
     borderopacity="1"
     objecttolerance="10"
     gridtolerance="10"
     guidetolerance="10"
     inkscape:pageopacity="0"
     inkscape:pageshadow="2"
     inkscape:window-width="1364"
     inkscape:window-height="835"
     id="namedview8351"
     showgrid="false"
     fit-margin-top="0"
     fit-margin-left="0"
     fit-margin-right="0"
     fit-margin-bottom="0"
     inkscape:zoom="2.0280951"
     inkscape:cx="197.32849"
     inkscape:cy="36.343241"
     inkscape:window-x="0"
     inkscape:window-y="0"
     inkscape:window-maximized="0"
     inkscape:current-layer="svg4171" /><metadata
     id="metadata4177"><rdf:RDF><cc:Work
         rdf:about=""><dc:format>image/svg+xml</dc:format><dc:type
           rdf:resource="http://purl.org/dc/dcmitype/StillImage" /><dc:title></dc:title></cc:Work></rdf:RDF></metadata><defs
     id="defs4175" /><path
     style="fill:#999999;fill-opacity:1;fill-rule:evenodd;stroke:none"
     d="M 53.496094 0 C 42.501469 0.03875 34.678313 3.3107031 29.710938 8.1582031 C 20.794938 -0.42929688 7.7143906 0.26726512 6.1191406 14.322266 C 5.3340156 21.229766 7.6880312 26.111953 14.316406 28.845703 C 16.451156 29.726953 22.542031 29.527186 23.207031 26.929688 C 23.952418 33.124694 27.129135 39.154166 32.445312 43.484375 C 30.224207 44.505201 27.747569 46.203824 25.560547 48.978516 C 11.484922 66.834766 -6.9512344 105.38883 2.6660156 103.11133 C 6.0013906 102.32008 12.258344 80.274922 24.511719 71.107422 C 22.990344 73.546172 20.334 81.791406 20.875 89.535156 C 21.63675 100.46016 29.128469 112.73914 27.761719 116.99414 C 27.664599 117.29539 26.000016 123.32727 23.056641 127.47852 C 20.188516 131.52477 17.553203 129.02203 16.126953 134.23828 C 16.127453 136.71078 22.187578 138.66313 24.767578 137.07812 C 29.918078 133.91438 33.667016 122.75953 34.916016 116.30078 C 36.555641 107.70078 46.425328 107.40625 52.033203 108.25 C 71.435203 111.16125 52.924859 132.98609 52.380859 136.83984 C 57.068859 153.90859 77.619063 108.60977 79.414062 99.322266 C 79.485313 98.959766 79.551172 98.589687 79.607422 98.210938 C 84.629922 103.99344 90.601562 107.46648 90.601562 119.05273 C 90.602762 141.95148 74.337109 135.03047 73.599609 131.69922 C 70.870859 119.38922 85.213203 118.85391 83.158203 128.22266 C 81.945703 133.74641 82.209531 126.95664 81.519531 126.86914 C 69.138281 125.28539 87.245859 140.20852 85.162109 125.07227 C 82.463359 105.45477 60.839672 132.00461 76.091797 136.72461 C 96.940547 143.17461 98.319531 106.86617 79.957031 94.076172 C 80.147801 87.340442 78.899753 79.563172 78.169922 74.474609 C 77.987977 73.799017 77.886248 73.146014 77.890625 72.515625 C 77.961484 73.061507 78.077224 73.828299 78.169922 74.474609 C 79.391048 79.008857 84.450907 84.616906 88.632812 92.052734 C 91.332813 96.850234 91.243906 103.72633 93.097656 106.89258 C 93.882656 108.23758 96.269531 110.66539 97.519531 108.33789 C 99.828281 105.90539 98.504219 99.443594 96.011719 90.402344 C 91.452969 73.858594 82.018047 52.125625 81.248047 50.734375 C 79.243067 47.102756 76.13011 44.828669 72.4375 43.429688 C 77.71544 38.656114 79.853463 31.847125 79.369141 25.027344 C 80.364141 27.376094 86.108672 27.532344 88.169922 26.683594 C 94.798672 23.948594 97.152891 19.065 96.369141 12.15625 C 94.690391 -2.6212495 80.316094 -2.634375 71.433594 7.390625 L 71.431641 7.3945312 C 67.010391 2.9232813 60.909094 -0.02375 53.496094 0 z "
     id="path6685" /></svg>