<?xml version="1.0" encoding="UTF-8" standalone="no"?>
<svg
   xmlns:dc="http://purl.org/dc/elements/1.1/"
   xmlns:cc="http://creativecommons.org/ns#"
   xmlns:rdf="http://www.w3.org/1999/02/22-rdf-syntax-ns#"
   xmlns:svg="http://www.w3.org/2000/svg"
   xmlns="http://www.w3.org/2000/svg"
   xmlns:sodipodi="http://sodipodi.sourceforge.net/DTD/sodipodi-0.dtd"
   xmlns:inkscape="http://www.inkscape.org/namespaces/inkscape"
   id="svg4171"
   version="1.1"
   xml:space="preserve"
   width="98.715111"
   height="140.64731"
   viewBox="0 0 98.715111 140.64731"
   inkscape:version="0.91 r13725"
   sodipodi:docname="monkey.svg"><sodipodi:namedview
     pagecolor="#ffffff"
     bordercolor="#666666"
     borderopacity="1"
     objecttolerance="10"
     gridtolerance="10"
     guidetolerance="10"
     inkscape:pageopacity="0"
     inkscape:pageshadow="2"
     inkscape:window-width="1364"
     inkscape:window-height="835"
     id="namedview8351"
     showgrid="false"
     fit-margin-top="0"
     fit-margin-left="0"
     fit-margin-right="0"
     fit-margin-bottom="0"
     inkscape:zoom="2.0280951"
     inkscape:cx="197.32849"
     inkscape:cy="36.343241"
     inkscape:window-x="0"
     inkscape:window-y="0"
     inkscape:window-maximized="0"
     inkscape:current-layer="svg4171" /><metadata
     id="metadata4177"><rdf:RDF><cc:Work
         rdf:about=""><dc:format>image/svg+xml</dc:format><dc:type
           rdf:resource="http://purl.org/dc/dcmitype/StillImage" /><dc:title></dc:title></cc:Work></rdf:RDF></metadata><defs
     id="defs4175" /><g
     transform="matrix(1.25,0,0,-1.25,-924.87524,681.2259)"
     id="g6878"><path
       d="m 759.50988,488.09461 c -1.2171,-1.951 -3.3425,-8.547 -2.9097,-14.742 0.6094,-8.74 6.6031,-18.563 5.5097,-21.967 -0.0777,-0.241 -1.4093,-5.066 -3.764,-8.387 -2.2945,-3.237 -4.4024,-1.235 -5.5434,-5.408 4e-4,-1.978 4.8477,-3.541 6.9117,-2.273 4.1204,2.531 7.1192,11.455 8.1184,16.622 1.3117,6.88 9.2086,7.116 13.6949,6.441 15.5216,-2.329 0.7133,-19.788 0.2781,-22.871 3.7504,-13.655 20.1895,22.583 21.6255,30.013 0.057,0.29 0.11,0.587 0.155,0.89 4.018,-4.626 8.795,-7.405 8.795,-16.674 10e-4,-18.319 -13.011,-12.782 -13.601,-10.117 -2.183,9.848 9.291,10.276 7.647,2.781 -0.97,-4.419 -0.759,1.013 -1.311,1.083 -9.905,1.267 4.581,-10.672 2.914,1.437 -2.159,15.694 -19.4577,-5.545 -7.256,-9.321 16.679,-5.16 17.781,23.886 3.091,34.118 0.172,6.073 -1.149,13.373 -1.652,17.248 -0.027,-3.889 4.75,-8.794 8.594,-15.629 2.16,-3.838 2.089,-9.339 3.572,-11.872 0.628,-1.076 2.536,-3.018 3.536,-1.156 1.847,1.946 0.789,7.116 -1.205,14.349 -3.647,13.235 -11.195,30.62 -11.811,31.733 -6.248,11.317 -25.8977,6.243 -34.3395,6.906 -1.4872,0.118 -6.4016,-0.668 -10.2102,-5.5 -11.2605,-14.285 -26.0098,-45.129 -18.316,-43.307 2.6683,0.633 7.6738,18.269 17.4765,25.603 l 0,0 z m 40.2772,-6.203 0,0 c 1.114,0 -2.502,0 0,0 l 0,0"
       style="fill:#8d6b44;fill-opacity:1;fill-rule:evenodd;stroke:none"
       id="path6685"
       inkscape:connector-curvature="0" /><path
       d="m 771.22088,463.64161 c -14.0168,3.217 -8.1059,29.942 9.7515,28.208 24.4687,-1.681 17.2937,-40.212 -9.7515,-28.208"
       style="fill:#e9e9e9;fill-opacity:1;fill-rule:evenodd;stroke:none"
       id="path6687"
       inkscape:connector-curvature="0" /><path
       d="m 788.76658,495.55861 c 0.3098,0.182 1.2969,2.949 -0.0551,2.949 -0.3297,0 -0.8391,-2.323 0.0551,-2.949"
       style="fill:#fcd7b1;fill-opacity:1;fill-rule:evenodd;stroke:none"
       id="path6689"
       inkscape:connector-curvature="0" /><path
       d="m 786.50288,494.49861 c 0.3074,0.598 1.45,4.388 -0.0879,2.959 -0.4957,-0.46 -0.005,-3.138 0.0879,-2.959"
       style="fill:#fcd7b1;fill-opacity:1;fill-rule:evenodd;stroke:none"
       id="path6691"
       inkscape:connector-curvature="0" /><path
       d="m 784.14038,494.19261 c 0.6531,-1.398 1.4574,4.794 0.1285,2.49 -0.241,-0.417 -0.241,-2.248 -0.1285,-2.49"
       style="fill:#fcd7b1;fill-opacity:1;fill-rule:evenodd;stroke:none"
       id="path6693"
       inkscape:connector-curvature="0" /><path
       d="m 781.62318,494.20161 c 0.616,-0.954 2.291,4.327 0.7723,3.163 -0.6356,-0.487 -1.2441,-2.432 -0.7723,-3.163"
       style="fill:#fcd7b1;fill-opacity:1;fill-rule:evenodd;stroke:none"
       id="path6695"
       inkscape:connector-curvature="0" /><path
       d="m 779.74278,494.52561 c 0.0652,-0.007 1.6804,3.267 0.2878,3.012 -0.5347,-0.099 -0.9488,-2.937 -0.2878,-3.012"
       style="fill:#fcd7b1;fill-opacity:1;fill-rule:evenodd;stroke:none"
       id="path6697"
       inkscape:connector-curvature="0" /><path
       d="m 777.53568,495.12261 c 0.9254,0.72 0.8844,1.218 0.8813,3.026 -4e-4,0.132 -0.5992,0.584 -0.7473,-1.182 -0.0449,-0.548 -0.5449,-2.163 -0.134,-1.844"
       style="fill:#fcd7b1;fill-opacity:1;fill-rule:evenodd;stroke:none"
       id="path6699"
       inkscape:connector-curvature="0" /><path
       d="m 771.39388,498.35761 c 0.0321,0.67 0.9348,4.526 1.5539,2.52 0.1996,-0.646 -1.5636,-2.722 -1.5539,-2.52"
       style="fill:#fcd7b1;fill-opacity:1;fill-rule:evenodd;stroke:none"
       id="path6701"
       inkscape:connector-curvature="0" /><path
       d="m 773.28808,496.91261 c -1.2637,-0.885 1.1308,4.881 1.1328,2.222 8e-4,-0.482 -0.9137,-2.068 -1.1328,-2.222"
       style="fill:#fcd7b1;fill-opacity:1;fill-rule:evenodd;stroke:none"
       id="path6703"
       inkscape:connector-curvature="0" /><path
       d="m 775.47318,495.66361 c -1.0101,-0.52 0.1754,4.893 0.9106,3.125 0.3074,-0.74 -0.1364,-2.729 -0.9106,-3.125"
       style="fill:#fcd7b1;fill-opacity:1;fill-rule:evenodd;stroke:none"
       id="path6705"
       inkscape:connector-curvature="0" /><path
       d="m 789.11808,499.70861 c 0.3094,0.182 1.2973,2.948 -0.0546,2.948 -0.3309,0.002 -0.8395,-2.323 0.0546,-2.948"
       style="fill:#fcd7b1;fill-opacity:1;fill-rule:evenodd;stroke:none"
       id="path6707"
       inkscape:connector-curvature="0" /><path
       d="m 786.85448,498.64961 c 0.3078,0.597 1.4504,4.386 -0.0883,2.959 -0.4953,-0.461 -0.003,-3.139 0.0883,-2.959"
       style="fill:#fcd7b1;fill-opacity:1;fill-rule:evenodd;stroke:none"
       id="path6709"
       inkscape:connector-curvature="0" /><path
       d="m 784.49278,498.34261 c 0.6515,-1.398 1.4566,4.794 0.1273,2.491 -0.2414,-0.417 -0.2418,-2.248 -0.1273,-2.491"
       style="fill:#fcd7b1;fill-opacity:1;fill-rule:evenodd;stroke:none"
       id="path6711"
       inkscape:connector-curvature="0" /><path
       d="m 781.97478,498.35161 c 0.616,-0.954 2.2918,4.327 0.7711,3.163 -0.6352,-0.487 -1.2434,-2.432 -0.7711,-3.163"
       style="fill:#fcd7b1;fill-opacity:1;fill-rule:evenodd;stroke:none"
       id="path6713"
       inkscape:connector-curvature="0" /><path
       d="m 780.09468,498.67561 c 0.0645,-0.007 1.6801,3.267 0.2875,3.011 -0.5355,-0.098 -0.9492,-2.936 -0.2875,-3.011"
       style="fill:#fcd7b1;fill-opacity:1;fill-rule:evenodd;stroke:none"
       id="path6715"
       inkscape:connector-curvature="0" /><path
       d="m 777.88728,499.27261 c 0.925,0.72 0.8848,1.217 0.8816,3.026 -8e-4,0.132 -0.5996,0.584 -0.7472,-1.18 -0.0461,-0.549 -0.545,-2.166 -0.1344,-1.846"
       style="fill:#fcd7b1;fill-opacity:1;fill-rule:evenodd;stroke:none"
       id="path6717"
       inkscape:connector-curvature="0" /><path
       d="m 773.63918,501.06261 c -1.2636,-0.886 1.1313,4.881 1.1336,2.222 0,-0.482 -0.914,-2.069 -1.1336,-2.222"
       style="fill:#fcd7b1;fill-opacity:1;fill-rule:evenodd;stroke:none"
       id="path6719"
       inkscape:connector-curvature="0" /><path
       d="m 775.82598,499.81261 c -1.0118,-0.519 0.1742,4.893 0.9089,3.126 0.3082,-0.739 -0.1359,-2.728 -0.9089,-3.126"
       style="fill:#fcd7b1;fill-opacity:1;fill-rule:evenodd;stroke:none"
       id="path6721"
       inkscape:connector-curvature="0" /><path
       d="m 791.04908,496.57661 c -0.231,0.68 -0.034,1.77 -0.7665,2.158 -1.123,-2.739 1.0825,-3.092 0.7665,-2.158"
       style="fill:#fcd7b1;fill-opacity:1;fill-rule:evenodd;stroke:none"
       id="path6723"
       inkscape:connector-curvature="0" /><path
       d="m 777.66698,469.20861 c 0.3183,-0.043 0.682,1.395 -0.3664,1.048 -0.3973,-0.13 -0.1364,-0.66 0.084,-0.863 0.1148,-0.107 0.1113,-0.161 0.2824,-0.185"
       style="fill:#231f20;fill-opacity:1;fill-rule:evenodd;stroke:none"
       id="path6725"
       inkscape:connector-curvature="0" /><path
       d="m 777.68098,468.92361 0,0.567 c -0.0468,0 -0.0777,-0.018 -0.0851,-0.025 0.0351,0.031 0.1168,0.198 0.1168,0.38 0,0.182 -0.0613,0.182 -0.1211,0.182 l 0,0.567 c 0.4176,0 0.6875,-0.294 0.6879,-0.748 0,-0.187 -0.0461,-0.391 -0.1278,-0.557 -0.155,-0.318 -0.3613,-0.366 -0.4707,-0.366"
       style="fill:#231f20;fill-opacity:1;fill-rule:evenodd;stroke:none"
       id="path6727"
       inkscape:connector-curvature="0" /><path
       d="m 797.04708,539.06861 c 7.106,8.02 18.605,8.009 19.948,-3.813 0.627,-5.527 -1.256,-9.433 -6.559,-11.621 -1.649,-0.679 -6.245,-0.555 -7.041,1.324 0.74,-10.42 -6.151,-20.824 -23.6391,-19.869 -12.6492,0.689 -20.2023,9.302 -21.2906,18.347 -0.532,-2.078 -5.4043,-2.238 -7.1121,-1.533 -5.3027,2.187 -7.1855,6.094 -6.5574,11.62 1.2762,11.244 11.7402,11.801 18.873,4.931 3.9739,3.878 10.2321,6.495 19.0278,6.526 5.9304,0.019 10.8124,-2.339 14.3494,-5.916 l 0.001,0.004"
       style="fill:#8d6b44;fill-opacity:1;fill-rule:evenodd;stroke:none"
       id="path6729"
       inkscape:connector-curvature="0" /><path
       d="m 774.09388,520.34961 c -1.7015,1.749 -3.5156,2.558 -5.7418,1.044 -1.0496,-0.715 -1.3793,-1.332 -1.8945,-2.407 -0.0191,-0.056 -0.0797,-0.086 -0.1367,-0.068 -0.057,0.019 -0.0871,0.081 -0.0688,0.137 0.2082,0.434 0.3871,0.798 0.591,1.122 -0.4882,0.275 -0.9718,0.552 -1.4597,0.826 -0.0602,-0.003 -0.1106,0.044 -0.1137,0.102 -0.004,0.06 0.043,0.111 0.102,0.114 0.5453,-0.239 1.0718,-0.567 1.5902,-0.862 0.2758,0.399 0.6117,0.746 1.1227,1.112 -0.6766,0.656 -0.3329,0.315 -1.0739,1.069 -0.032,0.051 -0.0164,0.117 0.034,0.149 0.0508,0.032 0.1172,0.017 0.1492,-0.034 0.718,-0.722 0.3762,-0.382 1.068,-1.061 0.3898,0.263 0.7687,0.457 1.1379,0.59 -0.1496,0.585 -0.3707,0.941 -0.5309,1.542 -0.003,0.06 0.0434,0.112 0.102,0.115 0.0601,0.003 0.1109,-0.043 0.1144,-0.103 0.1602,-0.576 0.3645,-0.9 0.5157,-1.488 0.4457,0.136 0.8769,0.182 1.2953,0.149 0.0636,0.54 -0.002,0.797 0.1109,1.45 l -0.003,0.031 c -0.003,0.059 0.0426,0.11 0.1023,0.113 0.059,0.003 0.1106,-0.042 0.1133,-0.102 0,-10e-4 -0.0844,-1.141 -0.1156,-1.513 0.5094,-0.071 1,-0.254 1.4769,-0.53 0.295,1.098 0.1367,0.594 0.495,1.616 -0.004,0.06 0.0421,0.111 0.1015,0.114 0.0598,0.004 0.1106,-0.043 0.1141,-0.101 -0.3684,-1.12 -0.1914,-0.543 -0.525,-1.741 0.241,-0.151 0.4785,-0.326 0.7133,-0.52 0.5207,0.845 0.2683,0.42 0.7882,1.334 0.0274,0.052 0.0926,0.074 0.1457,0.046 0.0528,-0.028 0.0743,-0.094 0.0457,-0.145 -0.532,-0.937 -0.2664,-0.489 -0.8132,-1.377 0.2054,-0.18 0.4089,-0.375 0.6109,-0.581 0.0391,-0.046 0.034,-0.115 -0.0113,-0.153 -0.0449,-0.04 -0.1133,-0.034 -0.1524,0.011"
       style="fill:#4e3427;fill-opacity:1;fill-rule:evenodd;stroke:none"
       id="path6731"
       inkscape:connector-curvature="0" /><path
       d="m 766.30988,518.62961 -0.0765,0.02 c -0.2067,0.069 -0.3176,0.291 -0.25,0.495 0.1648,0.349 0.3125,0.653 0.4683,0.929 l -1.1691,0.662 c -0.168,0.043 -0.2863,0.184 -0.2961,0.354 -0.0121,0.215 0.1527,0.401 0.3684,0.414 l 0.0679,0.003 0.0625,-0.027 c 0.4364,-0.191 0.8563,-0.435 1.2629,-0.672 l 0.1356,-0.078 c 0.216,0.277 0.4633,0.525 0.7656,0.767 l -0.0465,0.045 c -0.2207,0.213 -0.2207,0.213 -0.4348,0.43 l -0.3597,0.369 c -0.1524,0.23 -0.0965,0.472 0.0851,0.587 l 0.0696,0.043 0.1394,0.017 c 0.1348,0 0.2586,-0.068 0.3309,-0.182 l 0.2801,-0.272 c 0.2226,-0.224 0.2226,-0.224 0.4257,-0.424 l 0.159,-0.155 c 0.2543,0.157 0.5074,0.291 0.7578,0.396 -0.0558,0.177 -0.1191,0.336 -0.1843,0.502 -0.095,0.239 -0.193,0.487 -0.2766,0.8 -0.0141,0.163 0.0211,0.262 0.0906,0.34 0.0703,0.078 0.1664,0.124 0.2711,0.13 4e-4,0 8e-4,0 0.002,0 0.2269,0 0.398,-0.163 0.4101,-0.369 0.0633,-0.205 0.1469,-0.414 0.2297,-0.622 0.066,-0.167 0.1348,-0.339 0.1981,-0.537 0.2816,0.064 0.5633,0.097 0.8414,0.097 0.005,0.104 0.007,0.199 0.0101,0.294 0.005,0.251 0.0114,0.51 0.0801,0.91 -0.0125,0.071 0.0235,0.172 0.0938,0.25 0.0703,0.078 0.1664,0.124 0.2711,0.13 3e-4,0 7e-4,0 7e-4,0 0.2282,0 0.3996,-0.164 0.4102,-0.373 0,-0.039 -0.0621,-0.85 -0.0965,-1.292 0.3301,-0.07 0.6621,-0.186 0.9918,-0.346 l 0.0496,0.188 c 0.0863,0.329 0.0863,0.329 0.2117,0.685 l 0.1356,0.383 c 0.01,0.078 0.043,0.151 0.0965,0.209 0.0703,0.079 0.1672,0.125 0.2715,0.131 3e-4,0 0.001,0 0.001,0 0.227,0 0.3981,-0.164 0.4102,-0.369 l 0.003,-0.054 -0.1769,-0.535 c -0.1114,-0.336 -0.1114,-0.336 -0.1997,-0.655 l -0.1066,-0.388 c 0.1031,-0.07 0.2074,-0.145 0.3121,-0.225 l 0.057,0.093 c 0.1633,0.263 0.1633,0.263 0.311,0.526 l 0.2469,0.435 c 0.0625,0.121 0.1957,0.202 0.3418,0.202 l 0.0707,0 0.1117,-0.046 c 0.0883,-0.044 0.1601,-0.128 0.1914,-0.228 0.032,-0.099 0.0215,-0.209 -0.0274,-0.3 l -0.2484,-0.44 c -0.1586,-0.281 -0.159,-0.281 -0.3258,-0.551 l -0.1234,-0.2 c 0.15,-0.139 0.2996,-0.284 0.4472,-0.436 0.152,-0.179 0.1336,-0.425 -0.0273,-0.565 -0.1598,-0.137 -0.4164,-0.118 -0.5527,0.039 -1.9172,1.969 -3.5094,2.26 -5.3684,0.996 -0.9894,-0.674 -1.2973,-1.251 -1.7984,-2.295 -0.0407,-0.128 -0.1899,-0.235 -0.3582,-0.235 l -0.045,0"
       style="fill:#4e3427;fill-opacity:1;fill-rule:evenodd;stroke:none"
       id="path6733"
       inkscape:connector-curvature="0" /><path
       d="m 790.31968,514.22561 c -3.1445,-7.629 -6.3961,-1.246 -7.9613,0.652 0.002,0.029 0.005,0.059 0.007,0.088 l -0.0683,-0.014 c -0.8997,10.823 -1.0329,7.628 -0.8274,0.014 -0.4387,-2.158 -1.8316,-7.055 -5.157,-4.692 -1.1754,0.836 -1.6563,2.16 -2.1559,3.426 -0.0789,0.235 -0.3328,0.363 -0.5676,0.284 -0.2343,-0.078 -0.3613,-0.332 -0.2832,-0.567 2.8235,-7.139 7.8457,-5.028 8.8891,0.243 2.9965,-4.615 6.35,-6.078 8.981,0.302 0.072,0.236 -0.061,0.488 -0.297,0.561 -0.237,0.072 -0.4867,-0.061 -0.5594,-0.297"
       style="fill:#42372a;fill-opacity:1;fill-rule:evenodd;stroke:none"
       id="path6735"
       inkscape:connector-curvature="0" /><path
       d="m 782.16738,520.85561 c 2.6289,0.58 3.6117,6.943 -2.4121,4.429 -2.3446,-0.978 0.4628,-4.859 2.4121,-4.429"
       style="fill:#393536;fill-opacity:1;fill-rule:evenodd;stroke:none"
       id="path6737"
       inkscape:connector-curvature="0" /><path
       d="m 790.50308,518.02061 c 0.56,1.477 9.718,3.109 10.037,1.242 1.708,-9.965 -11.8747,-6.072 -10.037,-1.242"
       style="fill:#f1e2af;fill-opacity:1;fill-rule:evenodd;stroke:none"
       id="path6739"
       inkscape:connector-curvature="0" /><path
       d="m 763.72598,516.41661 c 0.5347,1.404 9.2418,2.956 9.5457,1.18 1.623,-9.474 -11.2914,-5.773 -9.5457,-1.18"
       style="fill:#f1e2af;fill-opacity:1;fill-rule:evenodd;stroke:none"
       id="path6741"
       inkscape:connector-curvature="0" /><path
       d="m 763.48098,528.20561 c 0.652,0.186 3.0098,4.461 5.8786,1.97 1.8777,-1.629 -4.2278,-4.028 -5.8786,-1.97"
       style="fill:#4e3427;fill-opacity:1;fill-rule:evenodd;stroke:none"
       id="path6743"
       inkscape:connector-curvature="0" /><path
       d="m 797.60508,532.16961 c -0.674,-0.068 -4.442,3.037 -6.191,-0.335 -1.1436,-2.207 5.416,-2.187 6.191,0.335"
       style="fill:#4e3427;fill-opacity:1;fill-rule:evenodd;stroke:none"
       id="path6745"
       inkscape:connector-curvature="0" /><path
       d="m 800.14808,535.09161 c 1.841,3.898 11.539,1.37 5.917,-4.736 -0.382,-0.414 -3.687,-2.162 -3.997,0.365 -0.13,1.057 -2.328,3.508 -1.92,4.371"
       style="fill:#ecb059;fill-opacity:1;fill-rule:evenodd;stroke:none"
       id="path6747"
       inkscape:connector-curvature="0" /><path
       d="m 761.64238,533.35961 c -1.8414,3.898 -11.5399,1.37 -5.9168,-4.735 0.3816,-0.415 3.6859,-2.164 3.9968,0.364 0.1297,1.056 2.3282,3.508 1.92,4.371"
       style="fill:#ecb059;fill-opacity:1;fill-rule:evenodd;stroke:none"
       id="path6749"
       inkscape:connector-curvature="0" /><path
       d="m 798.85908,523.29661 c -1.699,1.748 -3.515,2.559 -5.74,1.044 -1.051,-0.715 -1.381,-1.333 -1.896,-2.407 -0.019,-0.057 -0.08,-0.087 -0.136,-0.068 -0.057,0.019 -0.088,0.08 -0.069,0.136 0.209,0.435 0.387,0.798 0.591,1.123 -0.488,0.275 -0.972,0.552 -1.4597,0.825 -0.0602,-0.002 -0.1105,0.043 -0.1137,0.103 -0.003,0.06 0.043,0.109 0.1028,0.113 0.5446,-0.238 1.0706,-0.567 1.5896,-0.862 0.276,0.399 0.612,0.745 1.123,1.112 -0.677,0.656 -0.334,0.315 -1.075,1.069 -0.031,0.051 -0.016,0.119 0.034,0.15 0.052,0.032 0.118,0.016 0.15,-0.035 0.718,-0.721 0.376,-0.382 1.067,-1.06 0.39,0.262 0.769,0.457 1.138,0.589 -0.149,0.586 -0.37,0.942 -0.529,1.544 -0.004,0.059 0.043,0.11 0.101,0.112 0.06,0.004 0.111,-0.042 0.114,-0.101 0.161,-0.576 0.366,-0.902 0.516,-1.488 0.445,0.136 0.877,0.181 1.295,0.149 0.063,0.54 -10e-4,0.797 0.111,1.45 l -0.003,0.03 c -0.002,0.06 0.043,0.111 0.103,0.114 0.059,0.003 0.11,-0.043 0.113,-0.102 10e-4,-10e-4 -0.085,-1.143 -0.115,-1.514 0.509,-0.07 0.999,-0.254 1.476,-0.529 0.295,1.098 0.137,0.592 0.495,1.616 -0.004,0.06 0.042,0.111 0.102,0.114 0.059,0.003 0.111,-0.042 0.113,-0.102 -0.367,-1.119 -0.191,-0.541 -0.524,-1.74 0.242,-0.152 0.479,-0.326 0.712,-0.521 0.521,0.846 0.27,0.421 0.789,1.335 0.028,0.053 0.094,0.074 0.147,0.046 0.052,-0.028 0.074,-0.093 0.045,-0.146 -0.532,-0.936 -0.266,-0.487 -0.813,-1.376 0.205,-0.18 0.41,-0.374 0.61,-0.583 0.039,-0.044 0.034,-0.112 -0.01,-0.151 -0.046,-0.04 -0.114,-0.034 -0.154,0.011"
       style="fill:#4e3427;fill-opacity:1;fill-rule:evenodd;stroke:none"
       id="path6751"
       inkscape:connector-curvature="0" /><path
       d="m 791.12108,521.57661 -0.125,0.02 c -0.203,0.068 -0.314,0.288 -0.248,0.494 0.166,0.349 0.313,0.652 0.47,0.93 l -1.1707,0.662 c -0.1679,0.045 -0.2851,0.184 -0.2949,0.354 -0.0101,0.216 0.1551,0.4 0.3692,0.413 l 0.0679,0.003 0.0621,-0.027 c 0.4374,-0.191 0.8584,-0.436 1.2654,-0.673 l 0.132,-0.077 c 0.219,0.279 0.465,0.526 0.766,0.767 l -0.045,0.044 c -0.222,0.214 -0.222,0.214 -0.435,0.432 l -0.361,0.368 c -0.093,0.137 -0.111,0.242 -0.087,0.344 0.024,0.103 0.085,0.189 0.174,0.245 l 0.069,0.042 0.138,0.017 c 0.135,0 0.259,-0.069 0.331,-0.183 l 0.281,-0.272 c 0.223,-0.224 0.223,-0.224 0.425,-0.423 l 0.16,-0.156 c 0.252,0.158 0.506,0.291 0.758,0.397 -0.057,0.177 -0.12,0.335 -0.184,0.501 -0.096,0.24 -0.194,0.488 -0.277,0.801 -0.015,0.158 0.018,0.259 0.088,0.338 0.069,0.078 0.166,0.125 0.271,0.132 l 10e-4,0 c 0.228,0 0.398,-0.162 0.412,-0.368 0.064,-0.206 0.148,-0.415 0.23,-0.623 0.067,-0.168 0.134,-0.34 0.198,-0.537 0.281,0.064 0.563,0.096 0.841,0.096 0.006,0.104 0.008,0.199 0.01,0.293 0.006,0.247 0.012,0.503 0.077,0.891 0.009,0.229 0.169,0.391 0.368,0.4 10e-4,0 10e-4,0 10e-4,0 0.228,0 0.399,-0.162 0.41,-0.369 l -0.011,-10e-4 c 0.009,-0.163 -0.018,-0.503 -0.084,-1.295 0.329,-0.07 0.66,-0.185 0.99,-0.345 l 0.049,0.184 c 0.087,0.332 0.087,0.332 0.212,0.684 l 0.137,0.387 c 0.009,0.078 0.043,0.15 0.096,0.21 0.07,0.079 0.167,0.125 0.273,0.13 0,0 0,0 0.001,0 0.227,0 0.398,-0.163 0.409,-0.371 l 0.002,-0.053 -0.177,-0.535 c -0.111,-0.335 -0.111,-0.335 -0.199,-0.658 l -0.106,-0.384 c 0.104,-0.07 0.208,-0.145 0.311,-0.224 l 0.058,0.094 c 0.163,0.263 0.163,0.263 0.312,0.526 l 0.245,0.434 c 0.064,0.121 0.197,0.202 0.343,0.202 l 0.071,0 0.113,-0.046 c 0.091,-0.048 0.159,-0.131 0.19,-0.231 0.031,-0.099 0.021,-0.205 -0.028,-0.297 l -0.253,-0.45 c -0.156,-0.274 -0.156,-0.274 -0.326,-0.55 l -0.119,-0.192 c 0.151,-0.139 0.301,-0.285 0.448,-0.436 0.153,-0.175 0.137,-0.423 -0.027,-0.565 -0.16,-0.138 -0.417,-0.116 -0.554,0.04 -1.917,1.97 -3.51,2.259 -5.366,0.995 -0.992,-0.674 -1.299,-1.251 -1.8,-2.294 -0.039,-0.127 -0.188,-0.235 -0.358,-0.235"
       style="fill:#4e3427;fill-opacity:1;fill-rule:evenodd;stroke:none"
       id="path6753"
       inkscape:connector-curvature="0" /></g></svg>